<?xml version="1.0" encoding="UTF-8"?>
<svg>
	<svg version="1.1" baseProfile="tiny" id="icon-alert" xmlns="http://www.w3.org/2000/svg" xmlns:xlink="http://www.w3.org/1999/xlink" x="0px" y="0px" width="32px" height="32px" viewBox="0 0 32 32" overflow="inherit" xml:space="preserve"><path fill="#3C3C3B" d="M30.099,26.63L18.185,2.802c-1.202-2.403-3.167-2.403-4.37,0L1.901,26.63C0.699,29.035,1.914,31,4.602,31h22.797C30.086,31,31.301,29.035,30.099,26.63z M17.503,25.832c-0.428,0.404-0.926,0.605-1.497,0.605c-0.579,0-1.082-0.201-1.509-0.605c-0.428-0.405-0.641-0.891-0.641-1.453c0-0.563,0.213-1.053,0.641-1.463c0.428-0.414,0.931-0.619,1.509-0.619c0.571,0,1.069,0.205,1.497,0.619c0.428,0.41,0.641,0.899,0.641,1.463C18.144,24.941,17.931,25.427,17.503,25.832z M18.004,13.286c-0.108,0.501-0.243,1.089-0.407,1.765c-0.156,0.638-0.334,1.435-0.534,2.389c-0.201,0.952-0.411,2.131-0.633,3.533h-0.858c-0.223-1.419-0.433-2.599-0.633-3.54c-0.201-0.941-0.379-1.732-0.535-2.371c-0.142-0.586-0.272-1.159-0.391-1.72c-0.118-0.561-0.178-0.981-0.178-1.263c0-0.572,0.213-1.059,0.636-1.464s0.93-0.607,1.523-0.607c0.587,0,1.095,0.202,1.527,0.607c0.429,0.405,0.646,0.892,0.646,1.464C18.166,12.383,18.111,12.785,18.004,13.286z"/></svg>
	<svg version="1.1" baseProfile="tiny" id="icon-settings" xmlns="http://www.w3.org/2000/svg" xmlns:xlink="http://www.w3.org/1999/xlink" x="0px" y="0px" width="32px" height="32px" viewBox="0 0 32 32" overflow="inherit" xml:space="preserve"><path fill="#3C3C3B" d="M32,17.333v-2.667l-2.528-0.506c-0.159-1.15-0.459-2.256-0.896-3.293l1.947-1.713l-1.332-2.31l-2.5,0.847c-0.699-0.875-1.502-1.662-2.395-2.338l0.86-2.543l-2.312-1.335l-1.816,2.069c-0.997-0.382-2.047-0.645-3.141-0.778L17.335,0h-2.667L14.1,2.845c-1.043,0.17-2.044,0.46-2.99,0.856L9.156,1.476l-2.31,1.335l0.972,2.875C7.044,6.32,6.346,7.042,5.732,7.833L2.81,6.845l-1.333,2.31l2.344,2.06c-0.347,0.903-0.598,1.853-0.743,2.837L0,14.667v2.667l3.078,0.617c0.146,0.984,0.396,1.934,0.743,2.834l-2.344,2.061l1.332,2.311l2.924-0.986c0.614,0.787,1.312,1.51,2.086,2.145l-0.972,2.875l2.309,1.334l1.955-2.225c0.945,0.398,1.947,0.687,2.99,0.857L14.667,32h2.667l0.553-2.767c1.094-0.137,2.144-0.398,3.141-0.779l1.818,2.068l2.31-1.334l-0.86-2.545c0.893-0.674,1.695-1.459,2.395-2.334l2.5,0.846l1.332-2.311l-1.947-1.711c0.438-1.039,0.737-2.146,0.896-3.293L32,17.333z M16,22.669c-3.682,0-6.667-2.984-6.667-6.669c0-3.682,2.985-6.667,6.667-6.667c3.685,0,6.669,2.984,6.669,6.667C22.669,19.685,19.685,22.669,16,22.669z"/></svg>
	<svg version="1.1" baseProfile="tiny" id="logo" xmlns="http://www.w3.org/2000/svg" xmlns:xlink="http://www.w3.org/1999/xlink" x="0px" y="0px" width="256px" height="128px" viewBox="0 0 256 128" overflow="inherit" xml:space="preserve"><path fill="#282727" d="M80.665,42.909v-3.99L76.88,38.16c-0.237-1.722-0.687-3.375-1.34-4.929l2.914-2.562l-1.995-3.459l-3.741,1.269c-1.047-1.31-2.247-2.488-3.586-3.498l1.29-3.808l-3.46-1.999l-2.719,3.099c-1.492-0.571-3.064-0.966-4.701-1.166l-0.828-4.142H54.72l-0.85,4.259c-1.56,0.254-3.061,0.688-4.474,1.282l-2.926-3.332l-3.456,1.999l1.452,4.304c-1.159,0.949-2.202,2.031-3.124,3.214l-4.373-1.48l-1.995,3.459l3.509,3.082c-0.52,1.352-0.897,2.772-1.111,4.247l-4.608,0.921v3.99l4.608,0.924c0.214,1.475,0.592,2.893,1.111,4.243l-3.509,3.084l1.992,3.459l4.376-1.479c0.921,1.181,1.965,2.263,3.124,3.213l-1.452,4.303l3.454,1.997l2.928-3.329c1.413,0.595,2.914,1.028,4.474,1.281l0.85,4.259h3.992l0.828-4.142c1.637-0.205,3.209-0.596,4.701-1.166l2.724,3.096l3.456-1.997l-1.29-3.811c1.339-1.008,2.54-2.182,3.586-3.495l3.741,1.269l1.995-3.459l-2.914-2.562c0.653-1.554,1.104-3.212,1.34-4.928L80.665,42.909z M56.715,50.896c-5.51,0-9.979-4.467-9.979-9.982c0-5.511,4.47-9.979,9.979-9.979c5.516,0,9.982,4.468,9.982,9.979C66.697,46.43,62.23,50.896,56.715,50.896z M63.785,61.31v27.547c0,5.937-0.427,10.176-1.279,12.718s-2.92,4.754-6.204,6.637c-3.285,1.882-7.249,2.824-11.894,2.824c-3.05,0-5.544-0.536-7.482-1.608c-1.938-1.071-2.906-2.554-2.906-4.453c0-1.4,0.501-2.569,1.505-3.503c1.003-0.935,2.22-1.402,3.648-1.402c2.418,0,4.067,1.25,4.946,3.751c0.605,1.677,1.525,2.516,2.762,2.516c1.32,0,2.247-0.694,2.783-2.083c0.536-1.389,0.804-4.309,0.804-8.761V68.246c0-2.034-0.324-3.449-0.969-4.247c-0.304-0.375-0.804-0.653-1.469-0.853l1.798-2.044c0.901,0.325,1.826,0.589,2.768,0.79l0.893,4.473h6.452l0.862-4.314c1.017-0.179,2.013-0.426,2.98-0.741L63.785,61.31z M51.5,46.169c-1.457-1.469-2.185-3.222-2.185-5.255c0-2.034,0.728-3.786,2.185-5.256c1.457-1.471,3.202-2.206,5.236-2.206c2.034,0,3.772,0.729,5.214,2.184c1.443,1.458,2.165,3.215,2.165,5.278c0,2.061-0.722,3.819-2.165,5.275c-1.442,1.458-3.181,2.185-5.214,2.185C54.701,48.375,52.956,47.639,51.5,46.169z M223.235,64.535v4.534c-2.089,0.359-3.45,0.97-4.08,1.836c-0.633,0.864-0.949,2.658-0.949,5.378v11.709c-0.879-0.056-1.594-0.082-2.145-0.082c-2.721,0-7.322,0.7-13.811,2.102c-4.643,0.989-8.532,1.484-11.667,1.484c-8.491,0-15.363-2.837-20.612-8.514c-5.249-5.674-7.873-12.291-7.873-19.848c0-8.108,2.771-15.082,8.307-20.923c5.539-5.839,12.402-8.759,20.592-8.759c6.679,0,12.546,2.13,17.604,6.39c0.879-1.814,1.414-3.751,1.607-5.813h4.412l0.492,19.541h-4.494c-2.829-9.509-8.354-14.264-16.569-14.264c-4.896,0-8.624,1.8-11.192,5.4c-2.572,3.602-3.855,9.647-3.855,18.139c0,5.964,0.378,10.5,1.134,13.604c0.756,3.106,2.212,5.511,4.37,7.215c2.156,1.705,4.953,2.556,8.39,2.556c3.049,0,5.577-0.659,7.583-1.979c2.007-1.319,3.012-3.916,3.012-7.792v-2.061c0-3.271-2.145-5.044-6.433-5.319v-4.534H223.235z M162.883,40.337c-1.194,1.209-3.084,4.865-5.668,10.965l-16.985,39.699h-5.07l-19.086-42.873c-1.539-3.462-2.598-5.683-3.174-6.658c-0.577-0.976-1.347-1.711-2.308-2.206c-0.444-0.229-1.025-0.397-1.714-0.521v11.692h-4.617c-0.824-3.655-2.391-6.664-4.7-9.027c-2.308-2.364-4.905-3.546-7.792-3.546c-2.171,0-3.896,0.605-5.173,1.814c-1.278,1.21-1.917,2.72-1.917,4.534c0,1.402,0.413,2.701,1.237,3.896c0.825,1.195,1.938,2.185,3.339,2.967c1.402,0.784,4.37,2.233,8.905,4.35c4.067,1.925,7.077,3.641,9.028,5.152c1.951,1.512,3.497,3.416,4.638,5.71c1.14,2.295,1.71,4.776,1.71,7.441c0,4.947-1.828,9.063-5.482,12.347c-3.656,3.285-8.012,4.925-13.069,4.925c-2.885,0-5.709-0.604-8.472-1.813c-2.761-1.209-4.967-2.816-6.616-4.823c-0.633,1.238-1.1,2.749-1.401,4.535h-4.947V69.772h4.947c1.374,5.716,3.435,9.798,6.183,12.244c2.749,2.446,5.716,3.669,8.905,3.669c2.364,0,4.247-0.702,5.648-2.103c1.402-1.402,2.103-3.051,2.103-4.946c0-1.347-0.44-2.695-1.319-4.041c-0.88-1.346-2.968-2.846-6.267-4.495c-6.348-3.159-10.636-5.475-12.862-6.945c-2.226-1.47-4.013-3.359-5.359-5.668c-0.357-0.612-0.66-1.252-0.922-1.913l2.538,0.861l3.224-5.59l-3.048-2.68c0.374-1.043,0.666-2.122,0.875-3.229l3.972-0.799v-6.447l-2.859-0.573c3.305-2.76,7.085-4.159,11.351-4.159c4.754,0,8.794,1.594,12.12,4.782c0.55-0.824,1.003-2.088,1.36-3.792h1.837h2.903h26.818v4.576c-4.151,0-6.225,1.017-6.225,3.05c0,1.128,0.592,2.982,1.771,5.565l11.462,25.354l10.759-25.395c0.797-1.869,1.195-3.447,1.195-4.741c0-2.556-2.074-3.833-6.225-3.833v-4.576h19.663v4.576C165.815,38.523,164.078,39.128,162.883,40.337z"/></svg>
</svg>