<?xml version="1.0" encoding="utf-8"?>
<!-- Generator: Adobe Illustrator 15.1.0, SVG Export Plug-In . SVG Version: 6.00 Build 0)  -->
<!DOCTYPE svg PUBLIC "-//W3C//DTD SVG 1.1 Tiny//EN" "http://www.w3.org/Graphics/SVG/1.1/DTD/svg11-tiny.dtd">
<svg version="1.1" baseProfile="tiny" id="fork-me" xmlns="http://www.w3.org/2000/svg" xmlns:xlink="http://www.w3.org/1999/xlink"
	 x="0px" y="0px" width="64px" height="64px" viewBox="0 0 64 64" overflow="inherit" xml:space="preserve">
<g>
	<path fill="#282727" d="M23.468,57.121c-0.144,0-0.243,0.072-0.286,0.161c0.043,0.09,0.143,0.162,0.286,0.162
		c0.145,0,0.244-0.072,0.287-0.162C23.712,57.193,23.612,57.121,23.468,57.121z"/>
	<path fill="#282727" d="M22.175,56.151c0.144,0,0.243-0.072,0.286-0.162c-0.043-0.09-0.143-0.161-0.286-0.161
		s-0.243,0.071-0.286,0.161C21.932,56.079,22.031,56.151,22.175,56.151z"/>
	<path fill="#282727" d="M9.236,25.278c-0.3,0-0.533,0.067-0.702,0.203c-0.168,0.136-0.286,0.345-0.352,0.629
		c-0.067,0.284-0.1,0.65-0.1,1.103c0,0.557,0.074,1.007,0.222,1.35s0.471,0.515,0.97,0.515c0.329,0,0.58-0.095,0.75-0.285
		c0.172-0.189,0.282-0.424,0.332-0.704c0.048-0.279,0.072-0.599,0.072-0.956c0-0.614-0.082-1.077-0.244-1.388
		C10.022,25.434,9.706,25.278,9.236,25.278z"/>
	<path fill="#282727" d="M24.512,57.519c-0.144,0-0.243,0.072-0.286,0.162c0.043,0.089,0.143,0.161,0.286,0.161
		s0.243-0.072,0.286-0.161C24.755,57.591,24.655,57.519,24.512,57.519z"/>
	<path fill="#282727" d="M25.553,57.519c-0.144,0-0.243,0.072-0.286,0.162c0.043,0.089,0.143,0.161,0.286,0.161
		s0.243-0.072,0.286-0.161C25.796,57.591,25.696,57.519,25.553,57.519z"/>
	<path fill="#282727" d="M19.711,14.928c-0.3,0-0.533,0.068-0.702,0.203c-0.168,0.136-0.285,0.345-0.352,0.629
		c-0.067,0.284-0.102,0.651-0.102,1.103c0,0.557,0.075,1.007,0.224,1.35c0.147,0.344,0.471,0.516,0.97,0.516
		c0.329,0,0.579-0.095,0.751-0.285c0.171-0.19,0.281-0.424,0.331-0.704c0.048-0.28,0.072-0.599,0.072-0.956
		c0-0.614-0.081-1.078-0.244-1.389C20.497,15.083,20.181,14.928,19.711,14.928z"/>
	<path fill="#282727" d="M21.677,55.403c0.143,0,0.243-0.071,0.286-0.16c-0.043-0.09-0.144-0.163-0.286-0.163
		c-0.144,0-0.243,0.073-0.286,0.163C21.434,55.332,21.533,55.403,21.677,55.403z"/>
	<path fill="#282727" d="M20.234,53.812c-0.021,0-0.034,0.013-0.054,0.016c0.099,0.021,0.2,0.035,0.292,0.065
		C20.413,53.846,20.333,53.812,20.234,53.812z"/>
	<path fill="#282727" d="M32.298,63.139l-0.047-6.118h-0.502l-0.047,6.118c-0.013,0.32-0.063,0.6-0.136,0.851
		C31.711,63.991,31.854,64,32,64s0.289-0.009,0.434-0.011C32.361,63.738,32.311,63.459,32.298,63.139z"/>
	<path fill="#282727" d="M21.13,54.757c0.144,0,0.243-0.071,0.286-0.161c-0.043-0.09-0.143-0.162-0.286-0.162
		s-0.243,0.072-0.286,0.162C20.887,54.686,20.986,54.757,21.13,54.757z"/>
	<path fill="#282727" d="M22.723,56.524c-0.144,0-0.243,0.072-0.286,0.161c0.043,0.09,0.143,0.161,0.286,0.161
		c0.143,0,0.243-0.071,0.286-0.161C22.966,56.597,22.865,56.524,22.723,56.524z"/>
	<path fill="#282727" d="M31.895,53.598c4.894,0,8.861-0.148,8.908-5.408c-0.012-1.133-0.574-2.184-1.535-3.057
		c-1.606-1.452-4.308-0.67-7.373-0.67c-3.077,0-5.788-0.775-7.391,0.686c-0.951,0.87-1.505,1.913-1.518,3.038
		C23.037,52.86,27.002,53.598,31.895,53.598z M35.812,48.405c0-0.982,0.554-1.779,1.237-1.779c0.682,0,1.236,0.797,1.236,1.779
		c0,0.021-0.004,0.041-0.004,0.062s0.004,0.041,0.004,0.062c0,0.983-0.555,1.78-1.236,1.78c-0.684,0-1.237-0.797-1.237-1.78
		c0-0.021,0.004-0.041,0.005-0.062C35.815,48.446,35.812,48.427,35.812,48.405z M31.457,50.742c0-0.255,0.208-0.462,0.464-0.462
		c0.257,0,0.463,0.207,0.463,0.462c0,0.022-0.01,0.041-0.013,0.062c0.003,0.021,0.013,0.04,0.013,0.062
		c0,0.257-0.206,0.466-0.463,0.466c-0.256,0-0.464-0.209-0.464-0.466c0-0.022,0.01-0.041,0.013-0.062
		C31.467,50.783,31.457,50.765,31.457,50.742z M30.84,51.915c-0.026-0.077,0.014-0.163,0.092-0.19
		c0.077-0.026,0.162,0.013,0.189,0.092c0.119,0.335,0.439,0.562,0.796,0.562s0.676-0.228,0.795-0.562
		c0.028-0.079,0.113-0.118,0.189-0.092c0.08,0.027,0.12,0.113,0.091,0.19c-0.001,0.004-0.004,0.007-0.006,0.01
		c0.018,0.035,0.021,0.076,0.006,0.115c-0.16,0.455-0.593,0.761-1.075,0.761c-0.483,0-0.916-0.306-1.077-0.761
		c-0.013-0.038-0.01-0.078,0.007-0.112C30.845,51.923,30.842,51.92,30.84,51.915z M25.862,48.405c0-0.982,0.554-1.779,1.236-1.779
		c0.684,0,1.237,0.797,1.237,1.779c0,0.021-0.004,0.041-0.004,0.062s0.004,0.041,0.004,0.062c0,0.983-0.554,1.78-1.237,1.78
		c-0.683,0-1.236-0.797-1.236-1.78c0-0.021,0.004-0.041,0.005-0.062C25.866,48.446,25.862,48.427,25.862,48.405z"/>
	<path fill="#282727" d="M55.446,25.382c-0.158,0-0.314,0.031-0.469,0.094c-0.153,0.063-0.296,0.149-0.428,0.258
		c-0.132,0.107-0.253,0.234-0.365,0.38v2.206c0.216,0.281,0.433,0.461,0.647,0.538c0.214,0.078,0.405,0.117,0.571,0.117
		c0.305,0,0.542-0.101,0.716-0.302c0.174-0.2,0.29-0.439,0.35-0.717c0.06-0.279,0.089-0.564,0.089-0.857
		c0-0.451-0.075-0.851-0.225-1.197C56.183,25.554,55.887,25.382,55.446,25.382z"/>
	<path fill="#282727" d="M50.065,14.928c-0.314,0-0.554,0.113-0.723,0.342c-0.169,0.228-0.262,0.526-0.28,0.895h1.979
		C51.042,15.339,50.717,14.928,50.065,14.928z"/>
	<path fill="#282727" d="M32,0C14.327,0,0,14.327,0,32c0,15.932,11.643,29.138,26.883,31.588c0.302-0.45,0.342-0.924,0.342-0.924
		v-3.249c-4.697,1.049-5.671-2.219-5.671-2.219c-0.747-1.916-1.829-2.426-1.829-2.426c-0.553-0.379-0.683-0.614-0.629-0.762
		c-0.098-0.381,0.739-0.37,0.739-0.37c1.668,0.124,2.538,1.716,2.538,1.716c1.557,2.677,4.148,1.72,4.967,1.327
		c0.23-1.075,0.775-1.732,1.332-2.146c-4.148-0.473-6.496-1.914-7.69-4.142c-2.002,0.062-5.482,0.313-8.814,1.254l-0.042-0.145
		c0.011-0.003,0.022-0.006,0.034-0.009l-0.034-0.116c3.28-0.926,6.698-1.186,8.725-1.254c-0.095-0.195-0.186-0.394-0.264-0.601
		c-2.045-0.077-5.312-0.056-8.498,0.581l-0.028-0.146c0.008-0.002,0.016-0.003,0.023-0.004l-0.023-0.121
		c3.147-0.63,6.374-0.661,8.432-0.587c-0.397-1.177-0.567-2.517-0.567-4.009c0-0.017,0.002-0.033,0.002-0.05
		c0-0.025-0.002-0.05-0.002-0.075c0-2.028,0.727-3.683,1.917-4.985c-0.133-0.351-0.38-1.16-0.333-2.309
		c0.017-0.762,0.159-1.669,0.567-2.687c0,0,1.577-0.5,5.155,1.939c1.5-0.411,3.109-0.613,4.7-0.613c1.447,0,2.892,0.167,4.249,0.506
		c3.467-2.318,4.998-1.832,4.998-1.832c0.447,1.117,0.578,2.105,0.57,2.909c0.006,0.76-0.113,1.356-0.228,1.751
		c1.337,1.35,2.161,3.114,2.161,5.32c0,0.03-0.002,0.06-0.002,0.09c0,0.012,0.002,0.023,0.002,0.035
		c0,1.497-0.099,2.839-0.407,4.018c2.042-0.084,5.395-0.075,8.664,0.578l-0.025,0.12c0.009,0.002,0.018,0.003,0.025,0.005
		l-0.03,0.146c-3.295-0.658-6.681-0.659-8.705-0.573c-0.062,0.202-0.133,0.396-0.207,0.589c2.004,0.06,5.513,0.31,8.875,1.258
		l-0.031,0.117c0.01,0.003,0.021,0.005,0.031,0.008l-0.039,0.145c-3.404-0.961-6.965-1.203-8.943-1.257
		c-0.987,2.24-3.126,3.688-7.542,4.154c0.728,0.547,1.428,1.528,1.428,3.295v0.125v4.699c0,0,0.04,0.474,0.342,0.924
		C52.357,61.138,64,47.932,64,32C64,14.327,49.673,0,32,0z M19.047,55.825l0.323-1.126l0.315,1.102
		c0.009,0.041,0.013,0.11,0.007,0.185c0.021,0.152,0.009,0.437-0.345,0.443c-0.372-0.07-0.307-0.445-0.302-0.47
		C19.041,55.886,19.047,55.825,19.047,55.825z M37.026,14.896l2.288-0.467c0.029,0.192,0.043,0.467,0.043,0.825
		c0.257-0.257,0.529-0.459,0.815-0.604c0.287-0.147,0.62-0.221,0.995-0.221c0.351,0,0.687,0.069,1.008,0.206
		c0.321,0.138,0.564,0.39,0.727,0.759c0.329-0.39,0.646-0.648,0.948-0.775c0.305-0.126,0.616-0.19,0.938-0.19
		c0.572,0,1.012,0.136,1.322,0.407c0.312,0.271,0.467,0.687,0.467,1.246v1.675c0,0.202,0.01,0.355,0.029,0.459
		c0.02,0.103,0.078,0.183,0.174,0.243c0.096,0.06,0.248,0.09,0.458,0.09h0.189v0.498H44.42v-0.498c0.249,0,0.427-0.028,0.531-0.084
		c0.104-0.057,0.169-0.135,0.192-0.233c0.023-0.1,0.035-0.258,0.035-0.475v-1.642c0-0.239-0.054-0.459-0.16-0.662
		c-0.107-0.202-0.35-0.303-0.729-0.303c-0.271,0-0.506,0.068-0.705,0.203c-0.198,0.135-0.351,0.321-0.458,0.559
		c-0.105,0.235-0.16,0.501-0.16,0.794v1.051c0,0.225,0.015,0.386,0.041,0.485c0.027,0.1,0.097,0.176,0.21,0.228
		c0.111,0.053,0.294,0.079,0.546,0.079v0.498h-2.948v-0.498c0.242,0,0.416-0.027,0.523-0.082c0.106-0.054,0.172-0.131,0.195-0.232
		c0.022-0.101,0.035-0.261,0.035-0.478V16.05c0-0.38-0.101-0.625-0.299-0.734c-0.199-0.11-0.384-0.165-0.557-0.165
		c-0.231,0-0.457,0.056-0.673,0.168c-0.217,0.112-0.383,0.256-0.493,0.433c-0.08,0.13-0.132,0.258-0.154,0.385
		c-0.023,0.127-0.036,0.285-0.036,0.477v1.144c0,0.225,0.014,0.386,0.041,0.485s0.099,0.176,0.214,0.228
		c0.115,0.053,0.299,0.079,0.548,0.079v0.498h-2.965v-0.498c0.246,0,0.422-0.026,0.528-0.079c0.106-0.052,0.173-0.129,0.197-0.23
		c0.025-0.101,0.039-0.262,0.039-0.482v-1.854c0-0.339-0.22-0.51-0.656-0.51h-0.277V14.896z M27.749,18.549
		c0.212,0,0.374-0.021,0.487-0.063c0.112-0.041,0.189-0.116,0.233-0.225c0.043-0.108,0.063-0.276,0.063-0.504V13.14
		c0-0.178-0.023-0.306-0.072-0.388c-0.05-0.082-0.124-0.135-0.225-0.16c-0.102-0.025-0.265-0.042-0.487-0.049v-0.499l2.183-0.477
		v4.992l1.523-1.041c0.101-0.076,0.166-0.129,0.192-0.157c0.027-0.03,0.041-0.066,0.041-0.108c0-0.098-0.085-0.147-0.255-0.147
		h-0.305v-0.499h2.299v0.499c-0.376,0.036-0.786,0.206-1.229,0.509l-0.554,0.391l1.453,1.961c0.151,0.195,0.278,0.342,0.382,0.437
		c0.103,0.096,0.216,0.145,0.339,0.145v0.498h-2.689v-0.498c0.318,0,0.478-0.064,0.478-0.19c0-0.087-0.039-0.179-0.119-0.276
		l-0.986-1.3l-0.569,0.391v0.676c0,0.217,0.022,0.376,0.065,0.475c0.044,0.101,0.104,0.161,0.185,0.188
		c0.08,0.024,0.204,0.038,0.374,0.038v0.498h-2.807V18.549z M31.739,22.661c0,0.216-0.076,0.402-0.229,0.555
		c-0.154,0.154-0.341,0.229-0.557,0.229c-0.213,0-0.398-0.077-0.556-0.235c-0.157-0.156-0.236-0.34-0.236-0.549
		c0-0.219,0.078-0.403,0.234-0.559c0.154-0.155,0.341-0.233,0.558-0.233c0.22,0,0.406,0.076,0.559,0.228
		C31.664,22.248,31.739,22.436,31.739,22.661z M22.941,18.549h0.282c0.303,0,0.489-0.059,0.558-0.175
		c0.068-0.114,0.103-0.32,0.103-0.617v-1.583c0-0.241-0.024-0.414-0.074-0.52c-0.048-0.104-0.136-0.174-0.262-0.208
		c-0.126-0.034-0.328-0.052-0.606-0.052v-0.498l2.113-0.467c0.054,0.185,0.105,0.577,0.151,1.177
		c0.101-0.214,0.235-0.409,0.398-0.585c0.165-0.177,0.349-0.319,0.553-0.429c0.204-0.108,0.414-0.163,0.627-0.163
		c0.296,0,0.53,0.084,0.704,0.25c0.174,0.167,0.26,0.369,0.26,0.607c0,0.209-0.064,0.375-0.191,0.496
		c-0.129,0.12-0.28,0.182-0.453,0.182c-0.206,0-0.388-0.103-0.542-0.304c-0.072-0.091-0.133-0.156-0.179-0.195
		c-0.048-0.041-0.114-0.06-0.201-0.06c-0.282,0-0.501,0.153-0.658,0.458c-0.157,0.305-0.235,0.623-0.235,0.951v0.942
		c0,0.304,0.039,0.512,0.116,0.623c0.078,0.111,0.283,0.169,0.614,0.169h0.288v0.498h-3.365V18.549z M11.567,28.449
		c-0.238,0.365-0.562,0.644-0.968,0.837c-0.406,0.192-0.852,0.29-1.335,0.29c-0.456,0-0.887-0.09-1.293-0.267
		c-0.407-0.176-0.739-0.445-0.997-0.808c-0.259-0.36-0.388-0.804-0.388-1.327c0-0.783,0.267-1.379,0.802-1.785
		c0.534-0.406,1.17-0.61,1.908-0.61c0.549,0,1.022,0.109,1.42,0.325c0.397,0.217,0.698,0.508,0.902,0.873s0.306,0.76,0.306,1.187
		C11.925,27.655,11.805,28.084,11.567,28.449z M11.463,19.047v-0.498c0.448,0,0.736-0.066,0.865-0.198
		c0.128-0.131,0.192-0.355,0.192-0.67v-4.618c0-0.209-0.021-0.373-0.065-0.49c-0.043-0.118-0.142-0.21-0.295-0.277
		s-0.386-0.1-0.697-0.1v-0.499h6.016l0.056,1.908h-0.51c-0.091-0.408-0.211-0.706-0.361-0.894c-0.149-0.188-0.318-0.303-0.504-0.347
		c-0.186-0.043-0.445-0.065-0.777-0.065H14.07v2.597h0.688c0.325,0,0.545-0.057,0.661-0.169c0.116-0.111,0.185-0.358,0.207-0.742
		h0.498v2.444h-0.509c-0.018-0.282-0.051-0.484-0.1-0.606c-0.049-0.124-0.131-0.208-0.249-0.255
		c-0.118-0.047-0.293-0.071-0.528-0.071H14.07v2.184c0,0.297,0.059,0.515,0.176,0.657c0.118,0.14,0.396,0.211,0.837,0.211h0.152
		v0.498H11.463z M18.776,29.396h-2.809v-0.498c0.213,0,0.366-0.028,0.458-0.083c0.092-0.058,0.149-0.14,0.17-0.247
		c0.022-0.109,0.032-0.288,0.032-0.537v-1.533c0-0.308-0.044-0.551-0.135-0.73c-0.09-0.178-0.274-0.267-0.552-0.267
		c-0.379,0-0.662,0.145-0.849,0.436c-0.186,0.291-0.279,0.626-0.279,1.006v1.214c0,0.286,0.042,0.48,0.125,0.585
		c0.083,0.105,0.262,0.157,0.537,0.157v0.498h-2.862v-0.498c0.235,0,0.408-0.021,0.521-0.062c0.112-0.042,0.186-0.114,0.222-0.222
		c0.037-0.107,0.055-0.275,0.055-0.507v-1.751c0-0.252-0.049-0.418-0.147-0.496c-0.097-0.077-0.314-0.116-0.65-0.116v-0.498
		l2.109-0.467c0.032,0.21,0.048,0.405,0.048,0.585c0,0.048,0,0.088-0.002,0.122s-0.002,0.073-0.002,0.117
		c0.227-0.243,0.464-0.441,0.71-0.594c0.246-0.154,0.552-0.23,0.921-0.23c0.31,0,0.59,0.056,0.836,0.168
		c0.249,0.112,0.443,0.282,0.583,0.51c0.142,0.228,0.212,0.502,0.212,0.823v1.827c0,0.304,0.041,0.512,0.121,0.623
		c0.082,0.112,0.291,0.168,0.628,0.168V29.396z M19.737,19.227c-0.454,0-0.885-0.09-1.293-0.267
		c-0.406-0.177-0.738-0.445-0.995-0.808c-0.26-0.361-0.389-0.804-0.389-1.327c0-0.784,0.268-1.38,0.803-1.786
		c0.534-0.406,1.17-0.61,1.907-0.61c0.55,0,1.023,0.109,1.42,0.326c0.398,0.217,0.698,0.507,0.902,0.873
		c0.205,0.365,0.307,0.76,0.307,1.187c0,0.49-0.12,0.92-0.358,1.284c-0.237,0.365-0.561,0.645-0.967,0.837
		C20.667,19.129,20.222,19.227,19.737,19.227z M29.102,26.498c-0.21,0.021-0.368,0.055-0.475,0.1s-0.18,0.123-0.219,0.233
		c-0.04,0.109-0.06,0.281-0.06,0.512v1.724c-0.524,0-1.091,0.069-1.702,0.206c-0.44,0.098-0.771,0.165-0.991,0.203
		c-0.222,0.037-0.481,0.058-0.781,0.058c-0.795,0-1.477-0.187-2.043-0.559c-0.567-0.372-0.993-0.851-1.277-1.437
		c-0.284-0.585-0.425-1.187-0.425-1.805c0-0.708,0.168-1.354,0.504-1.938s0.792-1.042,1.365-1.377
		c0.575-0.334,1.204-0.502,1.887-0.502c0.83,0,1.588,0.287,2.271,0.863c0.082-0.156,0.149-0.37,0.2-0.641h0.525l0.054,2.406h-0.498
		c-0.075-0.364-0.219-0.699-0.429-1.003c-0.209-0.303-0.47-0.543-0.783-0.72c-0.312-0.178-0.655-0.266-1.032-0.266
		c-0.274,0-0.543,0.047-0.808,0.144c-0.263,0.096-0.51,0.262-0.739,0.498c-0.229,0.237-0.413,0.56-0.553,0.969
		c-0.14,0.408-0.209,0.911-0.209,1.512c0,0.513,0.055,1.005,0.162,1.479c0.109,0.475,0.33,0.881,0.662,1.22
		c0.332,0.34,0.802,0.51,1.409,0.51c0.477,0,0.838-0.074,1.083-0.226c0.247-0.149,0.405-0.332,0.48-0.55
		c0.074-0.217,0.111-0.459,0.111-0.727c0-0.253-0.019-0.437-0.058-0.552c-0.037-0.116-0.126-0.201-0.265-0.255
		c-0.14-0.055-0.354-0.081-0.644-0.081v-0.499h3.274V26.498z M32.353,29.396H29.41v-0.498h0.156c0.211,0,0.363-0.029,0.458-0.086
		c0.096-0.059,0.155-0.141,0.177-0.244c0.021-0.105,0.032-0.259,0.032-0.461v-1.609c0-0.225-0.014-0.384-0.04-0.478
		c-0.027-0.095-0.098-0.162-0.212-0.205c-0.114-0.044-0.305-0.067-0.571-0.071v-0.498l2.222-0.467v3.328
		c0,0.304,0.038,0.512,0.114,0.623c0.076,0.112,0.278,0.168,0.606,0.168V29.396z M35.698,29.31c-0.26,0.177-0.565,0.267-0.916,0.267
		c-0.426,0-0.74-0.087-0.942-0.26c-0.202-0.174-0.327-0.368-0.374-0.583c-0.047-0.214-0.071-0.456-0.071-0.724v-2.553h-0.817v-0.5
		c0.343,0,0.641-0.063,0.895-0.194c0.252-0.13,0.451-0.306,0.599-0.525c0.146-0.221,0.239-0.457,0.279-0.71h0.444v1.43h1.533v0.5
		h-1.533v2.585c0,0.313,0.02,0.541,0.062,0.681c0.041,0.139,0.144,0.209,0.306,0.209c0.173,0,0.316-0.068,0.428-0.203
		c0.112-0.137,0.221-0.305,0.325-0.508l0.467,0.212C36.187,28.842,35.96,29.134,35.698,29.31z M45.466,22.546
		c-0.308,0-0.535,0.035-0.683,0.104c-0.149,0.068-0.243,0.161-0.284,0.278c-0.043,0.118-0.063,0.279-0.063,0.485v4.618
		c0,0.198,0.02,0.356,0.058,0.474c0.038,0.118,0.133,0.213,0.285,0.284c0.15,0.073,0.38,0.109,0.688,0.109v0.498h-3.615v-0.498
		c0.297,0,0.521-0.032,0.672-0.099c0.152-0.063,0.25-0.157,0.293-0.28c0.043-0.124,0.065-0.286,0.065-0.488v-2.206h-3.41v2.206
		c0,0.304,0.064,0.523,0.19,0.661s0.415,0.206,0.868,0.206v0.498h-3.644v-0.498c0.293,0,0.517-0.032,0.67-0.099
		c0.154-0.063,0.253-0.156,0.298-0.277c0.045-0.122,0.068-0.284,0.068-0.491v-4.618c0-0.206-0.022-0.367-0.066-0.485
		c-0.043-0.117-0.138-0.21-0.287-0.278c-0.147-0.068-0.375-0.104-0.683-0.104v-0.498h3.644v0.498c-0.449,0-0.738,0.066-0.865,0.201
		c-0.128,0.134-0.193,0.356-0.193,0.666v1.811h3.41v-1.811c0-0.206-0.021-0.367-0.061-0.485c-0.039-0.117-0.133-0.21-0.281-0.278
		c-0.147-0.068-0.377-0.104-0.688-0.104v-0.498h3.615V22.546z M51.934,29.364c-0.104,0.008-0.286,0.02-0.547,0.035
		c-0.261,0.017-0.553,0.04-0.876,0.07c-0.323,0.031-0.581,0.067-0.776,0.106v-0.792c-0.467,0.535-1.025,0.803-1.675,0.803
		c-0.474,0-0.824-0.102-1.051-0.305c-0.229-0.202-0.37-0.425-0.425-0.668c-0.053-0.244-0.08-0.505-0.08-0.784v-1.598
		c0-0.213-0.014-0.37-0.039-0.47s-0.092-0.175-0.2-0.227c-0.108-0.053-0.287-0.079-0.536-0.079v-0.5h2.173v2.987
		c0,0.615,0.237,0.922,0.71,0.922c0.271,0,0.501-0.097,0.688-0.29c0.188-0.194,0.333-0.379,0.435-0.556v-1.788
		c0-0.225-0.015-0.386-0.041-0.483c-0.027-0.097-0.097-0.17-0.209-0.219s-0.299-0.073-0.558-0.073v-0.5h2.205v3.264
		c0,0.169,0.017,0.298,0.049,0.38c0.033,0.083,0.106,0.146,0.222,0.191c0.116,0.046,0.294,0.07,0.531,0.074V29.364z M50.299,19.227
		c-0.415,0-0.794-0.061-1.135-0.18s-0.632-0.285-0.87-0.498s-0.422-0.466-0.548-0.755s-0.189-0.6-0.189-0.932
		c0-0.437,0.105-0.842,0.316-1.214c0.211-0.372,0.516-0.668,0.908-0.888c0.394-0.221,0.844-0.332,1.351-0.332
		c0.494,0,0.912,0.107,1.254,0.321c0.342,0.213,0.594,0.489,0.757,0.829c0.162,0.34,0.243,0.702,0.243,1.084h-3.333
		c0.003,0.069,0.014,0.214,0.029,0.438c0.017,0.226,0.067,0.454,0.152,0.688c0.085,0.235,0.23,0.434,0.439,0.594
		c0.207,0.161,0.486,0.242,0.837,0.242c0.19,0,0.423-0.051,0.692-0.147c0.271-0.098,0.507-0.285,0.705-0.563l0.424,0.287
		C51.905,18.884,51.229,19.227,50.299,19.227z M57.336,28.898c-0.229,0.221-0.491,0.389-0.786,0.503
		c-0.295,0.117-0.605,0.175-0.935,0.175c-0.387,0-0.719-0.075-0.997-0.226c-0.279-0.15-0.509-0.342-0.688-0.577
		c-0.332,0.332-0.573,0.601-0.721,0.803h-0.424v-6.005c0-0.206-0.023-0.357-0.072-0.453c-0.049-0.097-0.131-0.156-0.243-0.185
		c-0.114-0.026-0.291-0.044-0.529-0.051v-0.488l2.244-0.478v3.508c0.184-0.174,0.398-0.324,0.642-0.452
		c0.244-0.129,0.563-0.193,0.957-0.193c0.368,0,0.696,0.067,0.983,0.201c0.287,0.133,0.526,0.314,0.718,0.541
		c0.192,0.228,0.336,0.481,0.432,0.759c0.096,0.278,0.144,0.565,0.144,0.861c0,0.348-0.064,0.672-0.19,0.975
		C57.743,28.417,57.565,28.678,57.336,28.898z"/>
	<path fill="#282727" d="M29.595,63.9c0.104-0.428,0.117-0.788,0.117-0.788v-5.92c-0.519,0.367-0.598,1.227-0.603,1.678
		c0.002,0.096,0.006,0.164,0.006,0.164v0.125v3.557v0.125c0,0.406-0.087,0.733-0.223,1.007C29.125,63.87,29.36,63.883,29.595,63.9z"
		/>
	<path fill="#282727" d="M26.608,57.345c-0.144,0-0.243,0.072-0.286,0.162c0.043,0.09,0.143,0.161,0.286,0.161
		s0.243-0.071,0.286-0.161C26.852,57.417,26.752,57.345,26.608,57.345z"/>
	<path fill="#282727" d="M20.234,53.938c-0.144,0-0.243,0.071-0.286,0.161c0.043,0.09,0.143,0.161,0.286,0.161
		s0.244-0.071,0.287-0.161C20.479,54.009,20.378,53.938,20.234,53.938z"/>
	<path fill="#282727" d="M34.885,62.841v-0.125v-3.557v-0.125c0,0,0.004-0.062,0.006-0.149c-0.005-0.424-0.086-1.236-0.604-1.64
		v5.867c0,0,0.013,0.36,0.118,0.788c0.233-0.018,0.469-0.03,0.702-0.053C34.972,63.574,34.885,63.247,34.885,62.841z"/>
</g>
</svg>
