<?xml version="1.0" encoding="utf-8"?>
<!-- Generator: Adobe Illustrator 15.1.0, SVG Export Plug-In . SVG Version: 6.00 Build 0)  -->
<!DOCTYPE svg PUBLIC "-//W3C//DTD SVG 1.1 Tiny//EN" "http://www.w3.org/Graphics/SVG/1.1/DTD/svg11-tiny.dtd">
<svg version="1.1" baseProfile="tiny" id="svg-icon-settings"
	 xmlns="http://www.w3.org/2000/svg" xmlns:xlink="http://www.w3.org/1999/xlink" x="0px" y="0px" width="32px" height="32px"
	 viewBox="0 0 32 32" overflow="inherit" xml:space="preserve">
<path fill="#282727" d="M32,17.333v-2.667l-2.528-0.506c-0.159-1.15-0.459-2.256-0.896-3.293l1.947-1.713l-1.332-2.31l-2.5,0.847
	c-0.699-0.875-1.502-1.662-2.395-2.338l0.86-2.543l-2.312-1.335l-1.816,2.069c-0.997-0.382-2.047-0.645-3.141-0.778L17.335,0h-2.667
	L14.1,2.845c-1.043,0.17-2.044,0.46-2.99,0.856L9.156,1.476l-2.31,1.335l0.972,2.875C7.044,6.32,6.346,7.042,5.732,7.833L2.81,6.845
	l-1.333,2.31l2.344,2.06c-0.347,0.903-0.598,1.853-0.743,2.837L0,14.667v2.667l3.078,0.617c0.146,0.984,0.396,1.934,0.743,2.834
	l-2.344,2.061l1.332,2.311l2.924-0.986c0.614,0.787,1.312,1.51,2.086,2.145l-0.972,2.875l2.309,1.334l1.955-2.225
	c0.945,0.398,1.947,0.687,2.99,0.857L14.667,32h2.667l0.553-2.767c1.094-0.137,2.144-0.398,3.141-0.779l1.818,2.068l2.31-1.334
	l-0.86-2.545c0.893-0.674,1.695-1.459,2.395-2.334l2.5,0.846l1.332-2.311l-1.947-1.711c0.438-1.039,0.737-2.146,0.896-3.293
	L32,17.333z M16,22.669c-3.682,0-6.667-2.984-6.667-6.669c0-3.682,2.985-6.667,6.667-6.667c3.685,0,6.669,2.984,6.669,6.667
	C22.669,19.685,19.685,22.669,16,22.669z"/>
</svg>
