<?xml version="1.0" encoding="utf-8"?>
<!-- Generator: Adobe Illustrator 15.1.0, SVG Export Plug-In . SVG Version: 6.00 Build 0)  -->
<!DOCTYPE svg PUBLIC "-//W3C//DTD SVG 1.1 Tiny//EN" "http://www.w3.org/Graphics/SVG/1.1/DTD/svg11-tiny.dtd">
<svg version="1.1" baseProfile="tiny" id="icon-alert"
	 xmlns="http://www.w3.org/2000/svg" xmlns:xlink="http://www.w3.org/1999/xlink" x="0px" y="0px" width="32px" height="32px"
	 viewBox="0 0 32 32" overflow="inherit" xml:space="preserve">
<path fill="#3C3C3B" d="M30.099,26.63L18.185,2.802c-1.202-2.403-3.167-2.403-4.37,0L1.901,26.63C0.699,29.035,1.914,31,4.602,31
	h22.797C30.086,31,31.301,29.035,30.099,26.63z M17.503,25.832c-0.428,0.404-0.926,0.605-1.497,0.605
	c-0.579,0-1.082-0.201-1.509-0.605c-0.428-0.405-0.641-0.891-0.641-1.453c0-0.563,0.213-1.053,0.641-1.463
	c0.428-0.414,0.931-0.619,1.509-0.619c0.571,0,1.069,0.205,1.497,0.619c0.428,0.41,0.641,0.899,0.641,1.463
	C18.144,24.941,17.931,25.427,17.503,25.832z M18.004,13.286c-0.108,0.501-0.243,1.089-0.407,1.765
	c-0.156,0.638-0.334,1.435-0.534,2.389c-0.201,0.952-0.411,2.131-0.633,3.533h-0.858c-0.223-1.419-0.433-2.599-0.633-3.54
	c-0.201-0.941-0.379-1.732-0.535-2.371c-0.142-0.586-0.272-1.159-0.391-1.72c-0.118-0.561-0.178-0.981-0.178-1.263
	c0-0.572,0.213-1.059,0.636-1.464s0.93-0.607,1.523-0.607c0.587,0,1.095,0.202,1.527,0.607c0.429,0.405,0.646,0.892,0.646,1.464
	C18.166,12.383,18.111,12.785,18.004,13.286z"/>
</svg>
