<?xml version="1.0" encoding="iso-8859-1"?>
<!-- Generator: Adobe Illustrator 16.2.0, SVG Export Plug-In . SVG Version: 6.00 Build 0)  -->
<!DOCTYPE svg PUBLIC "-//W3C//DTD SVG 1.1//EN" "http://www.w3.org/Graphics/SVG/1.1/DTD/svg11.dtd">
<svg version="1.1" id="svg-logo" xmlns="http://www.w3.org/2000/svg" xmlns:xlink="http://www.w3.org/1999/xlink" x="0px" y="0px"
	 width="256px" height="128px" viewBox="0 0 256 128" style="enable-background:new 0 0 256 128;" xml:space="preserve">
<path id="svg-logo-text" d="M63.785,61.31v27.547c0,5.937-0.427,10.176-1.279,12.718s-2.92,4.754-6.204,6.637
	c-3.285,1.882-7.249,2.824-11.894,2.824c-3.05,0-5.544-0.536-7.482-1.608c-1.938-1.07-2.906-2.554-2.906-4.453
	c0-1.399,0.501-2.568,1.505-3.502c1.003-0.936,2.22-1.402,3.648-1.402c2.418,0,4.067,1.25,4.946,3.75
	c0.605,1.678,1.525,2.517,2.762,2.517c1.32,0,2.247-0.694,2.783-2.083s0.804-4.309,0.804-8.761V68.246
	c0-2.034-0.324-3.449-0.969-4.247c-0.304-0.375-0.804-0.653-1.469-0.853l1.798-2.044c0.901,0.325,1.826,0.589,2.768,0.79
	l0.893,4.473h6.452l0.862-4.314c1.017-0.179,2.013-0.426,2.98-0.741H63.785z M51.5,46.169c-1.457-1.469-2.185-3.222-2.185-5.255
	c0-2.034,0.728-3.786,2.185-5.256c1.457-1.471,3.202-2.206,5.236-2.206c2.034,0,3.772,0.729,5.214,2.184
	c1.443,1.458,2.165,3.215,2.165,5.278c0,2.061-0.722,3.819-2.165,5.275c-1.442,1.458-3.181,2.185-5.214,2.185
	C54.701,48.375,52.956,47.639,51.5,46.169z M223.234,64.535v4.533c-2.088,0.359-3.449,0.971-4.08,1.836
	c-0.633,0.865-0.948,2.658-0.948,5.379v11.709c-0.879-0.057-1.595-0.082-2.146-0.082c-2.721,0-7.322,0.699-13.811,2.102
	c-4.643,0.989-8.532,1.484-11.667,1.484c-8.491,0-15.363-2.837-20.612-8.514c-5.248-5.674-7.873-12.291-7.873-19.849
	c0-8.108,2.771-15.082,8.307-20.923c5.539-5.839,12.402-8.759,20.593-8.759c6.679,0,12.546,2.13,17.604,6.39
	c0.879-1.814,1.414-3.751,1.606-5.813h4.412l0.491,19.541h-4.493c-2.829-9.509-8.354-14.264-16.569-14.264
	c-4.896,0-8.624,1.8-11.191,5.4c-2.572,3.602-3.855,9.647-3.855,18.139c0,5.963,0.378,10.5,1.134,13.604
	c0.757,3.105,2.212,5.511,4.37,7.215c2.156,1.705,4.953,2.557,8.391,2.557c3.049,0,5.576-0.66,7.582-1.979
	c2.008-1.319,3.013-3.916,3.013-7.792v-2.061c0-3.271-2.146-5.045-6.433-5.32v-4.533H223.234z M162.883,40.337
	c-1.193,1.209-3.084,4.865-5.668,10.965L140.23,91.001h-5.07l-19.086-42.873c-1.539-3.462-2.598-5.683-3.174-6.658
	c-0.577-0.976-1.347-1.711-2.308-2.206c-0.444-0.229-1.025-0.397-1.714-0.521v11.692h-4.617c-0.824-3.655-2.391-6.664-4.7-9.027
	c-2.308-2.364-4.905-3.546-7.792-3.546c-2.171,0-3.896,0.605-5.173,1.814c-1.278,1.21-1.917,2.72-1.917,4.534
	c0,1.402,0.413,2.701,1.237,3.896c0.825,1.195,1.938,2.185,3.339,2.967c1.402,0.784,4.37,2.233,8.905,4.35
	c4.067,1.925,7.077,3.641,9.028,5.152c1.951,1.512,3.497,3.416,4.638,5.71c1.14,2.295,1.71,4.775,1.71,7.441
	c0,4.946-1.828,9.062-5.482,12.347c-3.656,3.284-8.012,4.925-13.069,4.925c-2.885,0-5.709-0.604-8.472-1.812
	c-2.761-1.209-4.967-2.816-6.616-4.824c-0.633,1.238-1.1,2.75-1.401,4.535h-4.947V69.771h4.947
	c1.374,5.717,3.435,9.799,6.183,12.244c2.749,2.446,5.716,3.67,8.905,3.67c2.364,0,4.247-0.703,5.648-2.104
	c1.402-1.402,2.103-3.051,2.103-4.945c0-1.348-0.44-2.695-1.319-4.041c-0.88-1.347-2.968-2.847-6.267-4.496
	c-6.348-3.158-10.636-5.475-12.862-6.945c-2.226-1.47-4.013-3.359-5.359-5.668c-0.357-0.612-0.66-1.252-0.922-1.913l2.538,0.861
	l3.224-5.59l-3.048-2.68c0.374-1.043,0.666-2.122,0.875-3.229l3.972-0.799V37.69l-2.859-0.573c3.305-2.76,7.085-4.159,11.351-4.159
	c4.754,0,8.794,1.594,12.12,4.782c0.55-0.824,1.003-2.088,1.36-3.792h1.837h2.903h26.818v4.576c-4.151,0-6.225,1.017-6.225,3.05
	c0,1.128,0.592,2.982,1.771,5.565l11.462,25.354l10.759-25.395c0.797-1.869,1.195-3.447,1.195-4.741
	c0-2.556-2.074-3.833-6.226-3.833v-4.576h19.664v4.576C165.814,38.523,164.078,39.128,162.883,40.337z"/>
<path id="svg-logo-wheel" d="M80.665,42.909v-3.99L76.88,38.16c-0.237-1.722-0.687-3.375-1.34-4.929l2.914-2.562l-1.995-3.459
	l-3.741,1.269c-1.047-1.31-2.247-2.488-3.586-3.498l1.29-3.808l-3.46-1.999l-2.719,3.099c-1.492-0.571-3.064-0.966-4.701-1.166
	l-0.828-4.142H54.72l-0.85,4.259c-1.56,0.254-3.061,0.688-4.474,1.282l-2.926-3.332l-3.456,1.999l1.452,4.304
	c-1.159,0.949-2.202,2.031-3.124,3.214l-4.373-1.48l-1.995,3.459l3.509,3.082c-0.52,1.352-0.897,2.772-1.111,4.247l-4.608,0.921
	v3.99l4.608,0.924c0.214,1.475,0.592,2.893,1.111,4.243l-3.509,3.084l1.992,3.459l4.376-1.479c0.921,1.181,1.965,2.263,3.124,3.213
	l-1.452,4.303l3.454,1.997l2.928-3.329c1.413,0.595,2.914,1.028,4.474,1.281l0.85,4.259h3.992l0.828-4.142
	c1.637-0.205,3.209-0.596,4.701-1.166l2.724,3.096l3.456-1.997l-1.29-3.811c1.339-1.008,2.54-2.182,3.586-3.495l3.741,1.269
	l1.995-3.459l-2.914-2.562c0.653-1.554,1.104-3.212,1.34-4.928L80.665,42.909z M56.715,50.896c-5.51,0-9.979-4.467-9.979-9.982
	c0-5.511,4.47-9.979,9.979-9.979c5.516,0,9.982,4.468,9.982,9.979C66.697,46.43,62.23,50.896,56.715,50.896z"/>
</svg>
