<?xml version="1.0" encoding="utf-8"?>
<!-- Generator: Adobe Illustrator 15.1.0, SVG Export Plug-In . SVG Version: 6.00 Build 0)  -->
<!DOCTYPE svg PUBLIC "-//W3C//DTD SVG 1.1//EN" "http://www.w3.org/Graphics/SVG/1.1/DTD/svg11.dtd">
<svg version="1.1" id="torch" xmlns="http://www.w3.org/2000/svg" xmlns:xlink="http://www.w3.org/1999/xlink" x="0px" y="0px"
	 width="86px" height="270px" viewBox="0 0 86 270" enable-background="new 0 0 86 270" xml:space="preserve">
<g>
	<linearGradient id="SVGID_1_" gradientUnits="userSpaceOnUse" x1="37.5576" y1="192.416" x2="50.3257" y2="192.416">
		<stop  offset="0" style="stop-color:#B33F38"/>
		<stop  offset="0.4944" style="stop-color:#BA190E"/>
		<stop  offset="0.5899" style="stop-color:#F0F0EF"/>
		<stop  offset="0.6798" style="stop-color:#AA120F"/>
		<stop  offset="1" style="stop-color:#DC322C"/>
	</linearGradient>
	<path fill="url(#SVGID_1_)" d="M37.558,124.012c2.409,0.562,9.877,0.562,12.768,0.161c-4.175,28.909-2.649,124.468-1.847,136.192
		c-0.883,0.242-4.818,1.045-6.746-0.321C43.019,240.129,42.858,158.542,37.558,124.012z"/>
	<path fill="#C99413" d="M56.436,86.511c-1.564-0.216-2.971-0.36-4.364-0.407c-0.362-0.02-0.573,0.131-0.653,0.518
		c-0.584,3.096-1.128,6.258-1.642,9.467c1.956-0.091,3.903-0.228,5.813-0.412c0.443-2.942,0.912-5.74,1.41-8.367
		C57.069,86.867,56.889,86.596,56.436,86.511z M37.435,86.19c-1.456,0.04-3.151,0.184-4.575,0.42
		c-0.278,0.042-0.557,0.253-0.497,0.775c0.415,2.678,0.8,5.522,1.159,8.51c1.818,0.128,3.723,0.224,5.685,0.28
		c-0.395-3.251-0.818-6.454-1.276-9.586C37.912,86.454,37.777,86.178,37.435,86.19z"/>
	<linearGradient id="SVGID_2_" gradientUnits="userSpaceOnUse" x1="63.686" y1="104.3916" x2="27.0875" y2="110.8449">
		<stop  offset="0" style="stop-color:#B33F38"/>
		<stop  offset="0.1742" style="stop-color:#BA190E"/>
		<stop  offset="0.264" style="stop-color:#E6F4F8"/>
		<stop  offset="0.4213" style="stop-color:#AA120F"/>
		<stop  offset="1" style="stop-color:#DC322C"/>
	</linearGradient>
	<path fill="url(#SVGID_2_)" d="M62.839,99.593h-1.113c-0.047-0.422-7.978-0.762-17.755-0.762c-9.777,0-17.707,0.34-17.754,0.762
		h-1.114c0.03-0.662,8.465-1.197,18.868-1.197C54.374,98.396,62.809,98.931,62.839,99.593z M43.973,103.005
		c-9.784,0-17.717,0.504-17.745,1.126h1.047c0.044-0.396,7.502-0.717,16.698-0.717c9.195,0,16.654,0.32,16.698,0.717h1.047
		C61.689,103.509,53.757,103.005,43.973,103.005z M43.939,107.188c-9.269,0-16.784,0.477-16.811,1.067h0.992
		c0.042-0.376,7.107-0.679,15.819-0.679s15.778,0.303,15.82,0.679h0.992C60.724,107.666,53.208,107.188,43.939,107.188z
		 M43.975,111.65c-8.718,0-15.788,0.449-15.813,1.004h0.934c0.04-0.354,6.685-0.639,14.88-0.639c8.194,0,14.841,0.285,14.881,0.639
		h0.933C59.764,112.099,52.694,111.65,43.975,111.65z M43.977,116.106c-8.206,0-14.86,0.422-14.884,0.945h0.879
		c0.037-0.333,6.292-0.602,14.005-0.602c7.712,0,13.969,0.268,14.006,0.602h0.877C58.837,116.528,52.183,116.106,43.977,116.106z"/>
	<linearGradient id="SVGID_3_" gradientUnits="userSpaceOnUse" x1="29.0151" y1="110.8164" x2="62.0447" y2="104.9924">
		<stop  offset="0" style="stop-color:#B33F38"/>
		<stop  offset="0.1742" style="stop-color:#BA190E"/>
		<stop  offset="0.264" style="stop-color:#E6F4F8"/>
		<stop  offset="0.4213" style="stop-color:#AA120F"/>
		<stop  offset="1" style="stop-color:#DC322C"/>
	</linearGradient>
	<path fill="url(#SVGID_3_)" d="M27.009,99.344l0.166,1.036c0.933-0.116,2.157-0.221,3.603-0.311l-0.208-1.043
		C29.128,99.118,27.917,99.225,27.009,99.344z M57.581,99.035l-0.309,1.036c1.408,0.089,2.594,0.191,3.513,0.304l0.265-1.023
		C60.164,99.234,58.989,99.127,57.581,99.035z M28.02,103.897l0.156,0.974c0.877-0.109,2.028-0.208,3.388-0.292l-0.196-0.981
		C30.014,103.685,28.874,103.785,28.02,103.897z M56.772,103.606l-0.291,0.975c1.325,0.083,2.44,0.18,3.304,0.286l0.249-0.962
		C59.203,103.794,58.097,103.693,56.772,103.606z M28.826,108.033l0.148,0.923c0.831-0.103,1.922-0.196,3.21-0.277l-0.186-0.93
		C30.715,107.832,29.635,107.927,28.826,108.033z M56.066,107.757l-0.276,0.923c1.255,0.079,2.312,0.17,3.131,0.271l0.236-0.912
		C58.368,107.935,57.321,107.84,56.066,107.757z M29.759,112.445l0.139,0.868c0.782-0.097,1.808-0.185,3.02-0.261l-0.175-0.874
		C31.535,112.255,30.52,112.345,29.759,112.445z M55.383,112.185l-0.26,0.869c1.181,0.074,2.174,0.16,2.944,0.255l0.222-0.857
		C57.548,112.353,56.562,112.263,55.383,112.185z M30.597,116.854l0.13,0.817c0.736-0.092,1.702-0.174,2.842-0.245l-0.165-0.823
		C32.269,116.675,31.313,116.76,30.597,116.854z M54.542,116.61l-0.261,0.817c1.11,0.07,2.235,0.15,2.96,0.24l0.209-0.807
		C56.751,116.767,55.653,116.683,54.542,116.61z"/>
	<linearGradient id="SVGID_4_" gradientUnits="userSpaceOnUse" x1="45.9688" y1="98.3691" x2="42.4437" y2="87.5202">
		<stop  offset="0" style="stop-color:#9D967F"/>
		<stop  offset="0.3652" style="stop-color:#D2D0BB"/>
		<stop  offset="0.5449" style="stop-color:#A1A597"/>
		<stop  offset="0.736" style="stop-color:#A1A597"/>
		<stop  offset="0.9045" style="stop-color:#ECF5ED"/>
		<stop  offset="1" style="stop-color:#D3E9F8"/>
	</linearGradient>
	<path fill="url(#SVGID_4_)" d="M59.862,93.854c0.551-0.551,1.095-1.014,1.237-1.348c-4.945-1.815-30.054-1.578-34.061,0.028
		c0.146,0.438,0.855,1.213,1.207,1.565C35.589,95.092,50.248,95.569,59.862,93.854z"/>
	<g>
		<defs>
			<path id="SVGID_5_" d="M8.006,19.378C-2.111,39.775,14.11,82.817,28.243,92.454c7.95,0.963,26.58,0.803,31.559-0.241
				c8.352-2.248,27.544-63.599,12.768-78.856C57.794-1.901,18.125-1.018,8.006,19.378z"/>
		</defs>
		<clipPath id="SVGID_6_">
			<use xlink:href="#SVGID_5_"  overflow="visible"/>
		</clipPath>
		<g clip-path="url(#SVGID_6_)">
			<linearGradient id="SVGID_7_" gradientUnits="userSpaceOnUse" x1="19.8687" y1="23.7412" x2="72.0039" y2="114.0421">
				<stop  offset="0" style="stop-color:#B14A0C"/>
				<stop  offset="0.2528" style="stop-color:#FDD23E"/>
				<stop  offset="0.4157" style="stop-color:#FAED5D"/>
				<stop  offset="0.5225" style="stop-color:#FFFFFF"/>
				<stop  offset="0.8202" style="stop-color:#FAED5D"/>
				<stop  offset="1" style="stop-color:#DD7115"/>
			</linearGradient>
			<path fill="url(#SVGID_7_)" d="M29.688,119.917c-0.451-1.566-4.476-4.344-4.361-5.642c-1.194-0.761-1.698-1.952-1.799-3.045
				c2.768-1.177,6.574-4.568,8.097-6.505c-1.799-1.799-5.952-6.99-9.62-5.052c-1.107-2.422-2.353-6.575-1.315-8.028
				c1.263-1.768,4.499-2.768,4.36-6.367c-0.138-3.599,1.384-3.115,2.492-2.492c0-1.522-0.969-1.661-2.354-3.322
				c-1.384-1.661-3.875-11.004-7.474-4.983c-1.73-3.253,1.245-4.395,0.554-5.814c-8.167-16.748-4.429-21.385-1.246-25.191
				c-0.276,2.215,0.416,3.876,3.46,3.945c2.845,0.064,5.813-1.453,5.813-1.453s-2.076,6.782-0.692,6.229
				c1.384-0.554,2.007-2.284,2.699-1.454c0.692,0.831,2.007,2.422,3.115,2.422s2.629-3.599,2.907-6.99
				c1.246,1.592,6.046,2.117,7.197-0.899c1.454-3.807,5.075-6.458,4.568-8.374c-0.623-2.353-5.26-6.367-5.398-10.174
				c2.215,2.63,5.26,4.845,4.983,3.46c-0.277-1.384-0.554-5.537-4.014-10.796c1.938,1.661,2.907,1.8,4.429,3.184
				c-0.692-2.63-1.984-7.613-5.26-10.935c11.211,1.846,17.855,12.596,18.547,14.118c0.83-1.107,4.706-3.184,5.536-5.952
				c0,2.215-3.737,14.395-1.521,15.502c2.214,1.107,0.83,9.62,4.568,6.99c0.83,3.944-1.108,6.159-1.108,6.159
				s2.461,1.816,1.246,4.637c-1.73,4.014-1.246,7.682,2.768,5.19c-0.345,5.329-9.135,8.859-9.135,8.859s-2.285,4.429-5.813,5.398
				c0.484,1.177,0.623,2.007,0.276,3.875c1.523,0.831,3.045,1.938,2.076,6.229c1.246,2.492,5.26,5.883,5.398,11.489
				c-0.761-1.522-1.592-2.146-2.837-2.838c0.553,2.769,1.383,6.575,0.138,8.928c1.522,1.8,4.446,4.612,5.19,8.236
				c0.95,4.63-3.306,10.171-4.188,11.375C58.583,121.772,35.571,121.786,29.688,119.917z"/>
			<linearGradient id="SVGID_8_" gradientUnits="userSpaceOnUse" x1="18.166" y1="56.1826" x2="78.4444" y2="90.9844">
				<stop  offset="0" style="stop-color:#FAED5D"/>
				<stop  offset="0.2191" style="stop-color:#FFFFFF"/>
				<stop  offset="0.4551" style="stop-color:#FAED5D"/>
				<stop  offset="0.5506" style="stop-color:#FFFFFF"/>
				<stop  offset="1" style="stop-color:#FAED5D"/>
			</linearGradient>
			<path fill="url(#SVGID_8_)" d="M64.706,108.046c-1.176-5.467-5.744-5.606-5.882-11.834c-0.041-1.803-0.072-5.012-1.011-6.834
				c0.994-0.276,2.043-0.221,3.533,0.773c-0.293-2.759-7.063-5.417-6.904-20.446c-0.278-4.568,1.822-7.127,3.828-8.789
				c1.384,1.453,1.938,4.014,1.938,6.367c0.507-2.091,3.5-12.734,1.266-20.693c-2.234-7.959-1.958-14.049-0.711-17.233
				c-2.837,2.076-6.04,9.368-4.9,16.622c0.708,4.501-0.208,11.295-1.865,13.264c0.726-4.456,1.555-6.736-0.519-13.057
				c-2.072-6.321,0.726-17.513-4.62-27.487c3.553,20.809-5.675,29.667-10.843,33.173c3.138,2.399,0.229,10.479,0.541,11.723
				c1.72-1.573,3.451-1.642,4.35-1.227c-1.938,1.8-2.769,8.236-3.114,14.603c1.315-2.699,2.284-3.667,3.737-4.152
				c-1.73,5.19-1.73,9.205,1.107,18.686c-2.629-3.322-5.052-8.443-5.052-11.35c0,0.831-1.73,3.391-3.46,4.706
				c1.038-4.429,0.554-6.367,0.138-8.028c-0.346,0.969-1.038,2.214-2.768,3.46c0.277-1.661,0-5.536-1.246-7.613
				c0,0,0.462-1.061,1.431-1.522c-1.246-1.2-2.261-4.298-2.607-5.468c3.045,1.177,6.229,5.537,7.405,7.82
				c-1.454-9.55-4.222-10.588-2.353-17.994c-1.107,0.415-2.907,4.775-2.699,7.543c-1.246-2.146-2.976-7.198-2.076-9.412
				c-1.246,1.107-2.491,3.945-2.491,3.945l-0.969-5.122c0,0-1.938,3.322-1.384,7.475c-3.114-2.284-3.584-7.928-3.399-11.065
				c-3.506,3.322-3.75,5.925-3.525,8.85c-2.55,1.875-2.003,6.298,0.973,13.288c-0.277-2.284-0.069-4.429,0.484-5.537
				c0.692,3.945,4.152,4.706,5.26,10.243c1.107-1.246,1.038-6.575,0.761-9.62c0.523,0.598,2.422,6.206,1.13,12.942
				c1.154-0.6,1.661-0.83,2.215-1.845c0.969,2.307,0.092,12.365-2.722,8.351c-1.107,0.831-1.384,2.63-0.969,6.09
				c-1.522,1.107-3.875,1.8-3.599,6.229c1.107-0.553,4.637,0.624,6.437,2.907c1.384-0.415,1.799-1.522,2.007-2.699
				c0.969,1.176,6.021,7.474-6.229,13.634c0.069,1.038,3.668,0.277,5.052-0.416c-0.692,2.422-1.661,5.398,1.661,8.097
				c-0.346-1.661-0.346-4.221,0.485-3.806c2.63,0.139,4.014-1.869,4.429-3.114c-1.523,0.9-4.707,1.661-4.429-1.246
				c0.276-2.907,1.938-2.146,1.938,0.761c1.177-0.9,1.938-2.63,1.938-4.152c0.484,3.46,3.599,8.582,5.675,9.689
				c-1.107-2.215-2.146-4.914-1.592-7.059c2.353,2.076,3.46,3.668,4.776,7.474c-1.108-10.45,3.114-8.997,4.083-6.92
				c1.384-1.246,3.807,1.107,1.315,4.429c1.522,0.416,3.737-2.491,4.706-4.291c0.83,4.637,3.737,7.405,6.644,7.682
				c-2.422-2.146-3.184-4.152-2.215-5.537c0.969-1.384,3.327-3.125,2.981,4.764C63.741,116.478,65.882,113.513,64.706,108.046z
				 M45.674,47.074c-0.208,6.713,5.122,8.443,0.554,16.194C46.712,57.386,42.421,54.964,45.674,47.074z M58.13,107.838
				c0.415-5.398-3.46-3.599-4.29-5.537c-0.692,1.246-0.969,3.875-0.969,6.921c-2.214-1.661-1.246-7.751-1.384-10.104
				c-1.799,1.107-3.045,5.121-3.46,5.813c-0.277-4.429-2.907-3.737-3.876-7.335c0,0,2.492-0.139,3.599-4.291
				c-0.415,4.844,1.107,5.813,7.197-2.492c-4.152,7.613-0.554,9.412,0.969,7.89C54.67,100.779,61.314,102.717,58.13,107.838z"/>
			<linearGradient id="SVGID_9_" gradientUnits="userSpaceOnUse" x1="27.3843" y1="90.3457" x2="44.4232" y2="100.1831">
				<stop  offset="0" style="stop-color:#FFE24E"/>
				<stop  offset="0.4944" style="stop-color:#FFFFFF"/>
				<stop  offset="1" style="stop-color:#FAED5D"/>
			</linearGradient>
			<path fill="url(#SVGID_9_)" d="M32.386,82.508c-0.092,5.075-1.292,8.028-4.152,6.367c-0.139,2.353,6.275,3.045,6.644,10.935
				c2.583-5.121,2.214,4.014,1.246,5.813c4.844-3.922,4.106-0.323,3.46,2.491c4.614-4.937-0.323-9.919,2.861-13.795
				c-0.743,0.286-2.584,0.554-3.599,2.769c-0.7-0.459-1.558-4.474-0.554-8.49C35.893,90.444,32.386,88.991,32.386,82.508z"/>
			<linearGradient id="SVGID_10_" gradientUnits="userSpaceOnUse" x1="39.1758" y1="60.3247" x2="63.8085" y2="74.5464">
				<stop  offset="0" style="stop-color:#FFE24E"/>
				<stop  offset="0.4944" style="stop-color:#FFFFFF"/>
				<stop  offset="1" style="stop-color:#FAED5D"/>
			</linearGradient>
			<path fill="url(#SVGID_10_)" d="M50.196,41.445c-1.846,3.691,2.952,16.425,2.307,20.208c2.583-0.276,7.474-11.627,6.828-17.255
				c1.292,6.828,0,11.904-5.075,19.286c-2.721,3.957-0.739,18.548,2.399,23.253c-2.491-0.092-4.336,0.462-5.075,3.138
				c-1.015-4.891-4.983-2.122-5.259,1.938c-1.016-2.122,1.015-12.365,3.045-16.333c-1.884,1.099-3.784,3.229-4.891,5.26
				c-0.185-4.337,3.875-11.904,6.09-14.672c-2.86,2.584-5.353,4.707-8.305,3.691C55.64,62.3,46.412,44.86,50.196,41.445z"/>
			<linearGradient id="SVGID_11_" gradientUnits="userSpaceOnUse" x1="18.8267" y1="59.3569" x2="33.6117" y2="67.8931">
				<stop  offset="0" style="stop-color:#FAED5D"/>
				<stop  offset="0.2079" style="stop-color:#FFFFFF"/>
				<stop  offset="0.8483" style="stop-color:#FAED5D"/>
			</linearGradient>
			<path fill="url(#SVGID_11_)" d="M21.598,54.559c0,3.15-0.354,6.564-1.575,9.6c1.774-1.375,5.25,2.25,5.775,6
				c0.375-2.025,0.45-4.575,0.075-7.125c1.35,1.5,4.275,4.5,4.05,11.25c0-8.7,0.075-10.575-0.525-12.45
				c2.625,3.15,3.957,3.581,4.875,3.976c-1.403-1.087-4.102-7.073-4.102-8.423c-1.661,1.176-2.058,4.422-2.284,5.952
				c-0.75-1.2-3.207-3.529-3.806-4.429C23.389,61.469,21.898,57.333,21.598,54.559z"/>
		</g>
	</g>
	<linearGradient id="SVGID_12_" gradientUnits="userSpaceOnUse" x1="27.0381" y1="109.4727" x2="61.0986" y2="109.4727">
		<stop  offset="0" style="stop-color:#9D967F"/>
		<stop  offset="0.3652" style="stop-color:#D2D0BB"/>
		<stop  offset="0.5449" style="stop-color:#A1A597"/>
		<stop  offset="0.736" style="stop-color:#A1A597"/>
		<stop  offset="0.9045" style="stop-color:#ECF5ED"/>
		<stop  offset="1" style="stop-color:#D3E9F8"/>
	</linearGradient>
	<path fill="url(#SVGID_12_)" d="M27.038,92.534c4.006,1.161,28.893,1.191,34.061-0.028c-1.742,4.122-7.162,26.029-8.381,33.17
		c-4.571,0.938-14.201,1.143-17.862-0.135C33.172,114.685,29.046,98.557,27.038,92.534z"/>
	<path opacity="0.3" fill="#010101" d="M48.554,92.916c0.105,0.105,0.241,0.286,0.315,0.446
		c-2.553,19.919-3.876,42.145-4.493,64.118c1.964,40.972,0.916,80.979,0.539,103.557c-0.007,0.001-0.016,0.001-0.022,0.002
		c0,0.011,0,0.024,0,0.035c0.3,0.021,0.61,0.024,0.923,0.017c2.204,0.059,4.781-0.592,5.116-1.613
		c-0.224-21.53-2.377-117.771,4.171-166.717C53.295,92.832,50.801,92.886,48.554,92.916z M44.376,157.48
		c-1.052-21.942-2.969-44.158-6.315-64.126c0.157-0.167,0.336-0.345,0.443-0.446c-2.455-0.039-5.201-0.109-6.923-0.198
		c7.982,48.361,7.374,145.114,7.14,166.617c0.326,0.997,2.866,1.842,4.971,1.752c0.412,0.019,0.819,0.009,1.202-0.039
		C44.526,238.452,43.227,198.409,44.376,157.48z"/>
	<g>
		<linearGradient id="SVGID_13_" gradientUnits="userSpaceOnUse" x1="52.3291" y1="184.7051" x2="36.3221" y2="187.5275">
			<stop  offset="0" style="stop-color:#F29429"/>
			<stop  offset="0.264" style="stop-color:#F5A81A"/>
			<stop  offset="0.6461" style="stop-color:#FBD035"/>
			<stop  offset="0.7978" style="stop-color:#FFE714"/>
			<stop  offset="1" style="stop-color:#F5E81E"/>
		</linearGradient>
		<path fill="url(#SVGID_13_)" d="M44.361,185.122c-4.557,0-8.251,0.54-8.251,1.205h1.837c0-0.289,2.871-0.522,6.414-0.522
			c3.542,0,6.414,0.233,6.414,0.522h1.837C52.612,185.662,48.918,185.122,44.361,185.122z"/>
		<linearGradient id="SVGID_14_" gradientUnits="userSpaceOnUse" x1="54.7959" y1="91.2998" x2="25.4335" y2="257.8222">
			<stop  offset="0" style="stop-color:#C99413"/>
			<stop  offset="0.1685" style="stop-color:#FBD035"/>
			<stop  offset="0.4944" style="stop-color:#BA190E"/>
		</linearGradient>
		<path fill="url(#SVGID_14_)" d="M36.397,88.485c-0.08-0.388-0.291-0.538-0.652-0.519c-0.179,0.006-0.36,0.019-0.54,0.027
			c0.203,0.058,0.332,0.21,0.39,0.491c10.89,57.692,9.05,136.848,8.649,172.514c-0.172,0.024-0.349,0.038-0.529,0.047
			c0.458,0.024,0.911,0.011,1.333-0.047C45.447,225.333,47.287,146.177,36.397,88.485z"/>
		<linearGradient id="SVGID_15_" gradientUnits="userSpaceOnUse" x1="43.2837" y1="204.2349" x2="22.646" y2="87.1928">
			<stop  offset="0" style="stop-color:#DFE8F1"/>
			<stop  offset="0.4607" style="stop-color:#FFFEFF"/>
			<stop  offset="1" style="stop-color:#F0BB19"/>
		</linearGradient>
		<path fill="url(#SVGID_15_)" d="M23.585,88.599c-0.479-1.928,1.18-2.382,1.766-0.321c5.943,20.879,14.776,71.951,14.294,116.599
			C35.952,155.411,34.747,133.568,23.585,88.599z"/>
		
			<linearGradient id="SVGID_16_" gradientUnits="userSpaceOnUse" x1="479.5908" y1="201.769" x2="499.2536" y2="90.2559" gradientTransform="matrix(-1 0 0 1 545.8564 0)">
			<stop  offset="0" style="stop-color:#DFE8F1"/>
			<stop  offset="0.4607" style="stop-color:#FFFEFF"/>
			<stop  offset="1" style="stop-color:#F0BB19"/>
		</linearGradient>
		<path fill="url(#SVGID_16_)" d="M64.309,88.92c0.488-1.925-1.18-2.382-1.767-0.321c-5.942,20.878-14.385,71.63-13.903,116.277
			C52.333,155.411,52.906,133.889,64.309,88.92z"/>
		<linearGradient id="SVGID_17_" gradientUnits="userSpaceOnUse" x1="51.2988" y1="174.5981" x2="44.1411" y2="174.5981">
			<stop  offset="0" style="stop-color:#C99413"/>
			<stop  offset="0.2584" style="stop-color:#FBD035"/>
			<stop  offset="0.6966" style="stop-color:#AA120F"/>
		</linearGradient>
		<path fill="url(#SVGID_17_)" d="M45.448,261.048c-0.401-35.69-2.923-115.061,5.481-172.525c0.017-0.115,0.127-0.323,0.369-0.376
			c-0.172-0.007-0.349-0.018-0.515-0.023c-0.341-0.011-0.477,0.264-0.497,0.399c-8.405,57.464-5.882,136.835-5.481,172.525
			c0.339,0.025,0.692,0.031,1.048,0.021C45.717,261.065,45.582,261.058,45.448,261.048z"/>
		<linearGradient id="SVGID_18_" gradientUnits="userSpaceOnUse" x1="52.4058" y1="259.5825" x2="22.4732" y2="89.8263">
			<stop  offset="0" style="stop-color:#DFE8F1"/>
			<stop  offset="0.4607" style="stop-color:#EDF7FA"/>
			<stop  offset="1" style="stop-color:#F0BB19"/>
		</linearGradient>
		<path fill="url(#SVGID_18_)" d="M30.713,88.374c1.564-0.216,2.971-0.359,4.365-0.407c0.362-0.02,0.572,0.131,0.652,0.519
			c10.89,57.692,9.05,136.848,8.649,172.514c-2.184,0.301-5.176-0.593-5.537-1.677c0.12-22.047,0.2-123.204-8.693-170.148
			C30.08,88.729,30.26,88.458,30.713,88.374z"/>
		
			<linearGradient id="SVGID_19_" gradientUnits="userSpaceOnUse" x1="382.4941" y1="257.8359" x2="411.9453" y2="90.81" gradientTransform="matrix(-1 0 0 1 447.9268 0)">
			<stop  offset="0" style="stop-color:#DFE8F1"/>
			<stop  offset="0.4607" style="stop-color:#EDF7FA"/>
			<stop  offset="1" style="stop-color:#F0BB19"/>
		</linearGradient>
		<path fill="url(#SVGID_19_)" d="M55.865,88.543c-1.423-0.235-3.119-0.379-4.575-0.42c-0.341-0.011-0.477,0.264-0.497,0.399
			c-8.405,57.464-5.883,136.835-5.482,172.525c2.282,0.172,5.18-0.482,5.541-1.566c-0.12-22.052-1.874-122.487,5.509-170.163
			C56.421,88.797,56.143,88.586,55.865,88.543z"/>
	</g>
	<linearGradient id="SVGID_20_" gradientUnits="userSpaceOnUse" x1="33.0918" y1="215.3906" x2="56.9912" y2="211.1765">
		<stop  offset="0" style="stop-color:#F29429"/>
		<stop  offset="0.264" style="stop-color:#F5A81A"/>
		<stop  offset="0.6461" style="stop-color:#FBD035"/>
		<stop  offset="0.7978" style="stop-color:#FFE714"/>
		<stop  offset="1" style="stop-color:#F5E81E"/>
	</linearGradient>
	<path fill="url(#SVGID_20_)" d="M44.367,187.538c-4.35,0-7.917-0.57-8.229-1.294c-0.012,0.032-0.027,0.064-0.026,0.096
		l1.379,53.991c0.015,0.578,3.216,1.043,7.151,1.043c3.934,0,7.131-0.466,7.14-1.043l0.828-53.991c0-0.032-0.015-0.064-0.027-0.096
		C52.278,186.968,48.718,187.538,44.367,187.538z"/>
	<linearGradient id="SVGID_21_" gradientUnits="userSpaceOnUse" x1="52.3955" y1="185.0903" x2="36.3871" y2="187.9131">
		<stop  offset="0" style="stop-color:#F29429"/>
		<stop  offset="0.264" style="stop-color:#F5A81A"/>
		<stop  offset="0.6461" style="stop-color:#FBD035"/>
		<stop  offset="0.7978" style="stop-color:#FFE714"/>
		<stop  offset="1" style="stop-color:#F5E81E"/>
	</linearGradient>
	<path fill="url(#SVGID_21_)" d="M50.774,186.327c0,0.289-2.872,0.523-6.414,0.523c-3.542,0-6.414-0.234-6.414-0.523
		c0-0.027-0.022-0.024-0.008-0.077l-1.801-0.003c-0.012,0.027-0.028,0.053-0.028,0.081c0,0.666,3.694,1.205,8.251,1.205
		s8.251-0.539,8.251-1.205c0-0.027-0.016-0.054-0.028-0.081h-1.741C50.808,186.3,50.774,186.299,50.774,186.327z"/>
	<linearGradient id="SVGID_22_" gradientUnits="userSpaceOnUse" x1="63.7896" y1="104.9775" x2="27.0074" y2="111.4632">
		<stop  offset="0" style="stop-color:#B33F38"/>
		<stop  offset="0.1742" style="stop-color:#BA190E"/>
		<stop  offset="0.264" style="stop-color:#E6F4F8"/>
		<stop  offset="0.4213" style="stop-color:#AA120F"/>
		<stop  offset="1" style="stop-color:#DC322C"/>
	</linearGradient>
	<path fill="url(#SVGID_22_)" d="M61.726,99.593h1.113c0,0.001,0.001,0.002,0.001,0.004v1.055c0,0.663-8.448,1.201-18.869,1.201
		c-10.421,0-18.869-0.538-18.869-1.201v-1.055c0-0.001,0.001-0.002,0.001-0.004h1.114c0,0.001-0.002,0.003-0.002,0.004
		c0,0.423,7.95,0.766,17.756,0.766s17.757-0.343,17.757-0.766C61.728,99.596,61.726,99.595,61.726,99.593z M60.673,104.135
		c0,0.397-7.478,0.72-16.7,0.72c-9.223,0-16.7-0.323-16.7-0.72c0-0.001,0.002-0.002,0.002-0.004h-1.047
		c0,0.001-0.001,0.002-0.001,0.003v0.993c0,0.624,7.946,1.13,17.747,1.13c9.801,0,17.747-0.506,17.747-1.13v-0.993
		c0-0.001-0.001-0.002-0.001-0.003H60.67C60.671,104.133,60.673,104.134,60.673,104.135z M59.761,108.258
		c0,0.377-7.084,0.683-15.821,0.683s-15.821-0.306-15.821-0.683c0-0.001,0.002-0.002,0.002-0.003h-0.992
		c0,0.001-0.001,0.002-0.001,0.003v0.94c0,0.591,7.527,1.071,16.812,1.071c9.286,0,16.813-0.48,16.813-1.071v-0.94
		c0-0.001-0.001-0.002-0.001-0.003h-0.992C59.76,108.256,59.761,108.257,59.761,108.258z M58.858,112.657
		c0,0.355-6.664,0.642-14.883,0.642c-8.219,0-14.882-0.287-14.882-0.642c0-0.001,0.002-0.002,0.002-0.003h-0.934
		c0,0.001-0.001,0.002-0.001,0.003v0.884c0,0.556,7.081,1.007,15.815,1.007c8.735,0,15.815-0.451,15.815-1.007v-0.884
		c0-0.001-0.001-0.002-0.001-0.003h-0.933C58.856,112.655,58.858,112.656,58.858,112.657z M57.985,117.054
		c0,0.333-6.272,0.604-14.008,0.604c-7.736,0-14.007-0.271-14.007-0.604c0-0.001,0.002-0.002,0.002-0.003h-0.879
		c0,0.001-0.001,0.002-0.001,0.003v0.832c0,0.523,6.665,0.947,14.885,0.947c8.221,0,14.885-0.424,14.885-0.947v-0.832
		c0-0.001-0.001-0.002-0.001-0.003h-0.877C57.983,117.052,57.985,117.053,57.985,117.054z"/>
	<linearGradient id="SVGID_23_" gradientUnits="userSpaceOnUse" x1="27.0103" y1="111.46" x2="63.7871" y2="104.9752">
		<stop  offset="0" style="stop-color:#B33F38"/>
		<stop  offset="0.1742" style="stop-color:#BA190E"/>
		<stop  offset="0.264" style="stop-color:#E6F4F8"/>
		<stop  offset="0.4213" style="stop-color:#AA120F"/>
		<stop  offset="1" style="stop-color:#DC322C"/>
	</linearGradient>
	<path fill="url(#SVGID_23_)" d="M62.839,99.593v1.057c0,0.665-8.461,1.203-18.899,1.203c-10.437,0-18.834-0.539-18.834-1.203
		v-1.057c0,0.665,8.398,1.204,18.834,1.204C54.378,100.797,62.839,100.258,62.839,99.593z M44,105.263
		c-9.816,0-17.774-0.507-17.774-1.132v0.994c0,0.625,7.958,1.132,17.774,1.132c9.816,0,17.718-0.507,17.718-1.132v-0.994
		C61.718,104.756,53.816,105.263,44,105.263z M43.965,109.327c-9.299,0-16.838-0.48-16.838-1.072v0.941
		c0,0.592,7.539,1.072,16.838,1.072c9.3,0,16.787-0.478,16.787-1.069v-0.941C60.752,108.85,53.266,109.327,43.965,109.327z
		 M44,113.662c-8.747,0-15.839-0.452-15.839-1.008v0.885c0,0.557,7.092,1.009,15.839,1.009c8.749,0,15.762-0.452,15.762-1.009
		v-0.885C59.762,113.21,52.749,113.662,44,113.662z M44,118c-8.233,0-14.908-0.425-14.908-0.949v0.833
		c0,0.524,6.674,0.949,14.908,0.949s14.858-0.43,14.858-0.954v-0.833C58.858,117.57,52.233,118,44,118z"/>
</g>
</svg>
