<?xml version="1.0" encoding="UTF-8"?>
<svg>
	<defs>
		<svg version="1.1" baseProfile="tiny" id="svg-fork-me" xmlns="http://www.w3.org/2000/svg" xmlns:xlink="http://www.w3.org/1999/xlink" x="0px" y="0px" width="64px" height="64px" viewBox="0 0 64 64" overflow="inherit" xml:space="preserve"><g><path d="M23.468,57.121c-0.144,0-0.243,0.072-0.286,0.161c0.043,0.09,0.143,0.162,0.286,0.162c0.145,0,0.244-0.072,0.287-0.162C23.712,57.193,23.612,57.121,23.468,57.121z"/><path d="M22.175,56.151c0.144,0,0.243-0.072,0.286-0.162c-0.043-0.09-0.143-0.161-0.286-0.161s-0.243,0.071-0.286,0.161C21.932,56.079,22.031,56.151,22.175,56.151z"/><path d="M9.236,25.278c-0.3,0-0.533,0.067-0.702,0.203c-0.168,0.136-0.286,0.345-0.352,0.629c-0.067,0.284-0.1,0.65-0.1,1.103c0,0.557,0.074,1.007,0.222,1.35s0.471,0.515,0.97,0.515c0.329,0,0.58-0.095,0.75-0.285c0.172-0.189,0.282-0.424,0.332-0.704c0.048-0.279,0.072-0.599,0.072-0.956c0-0.614-0.082-1.077-0.244-1.388C10.022,25.434,9.706,25.278,9.236,25.278z"/><path d="M24.512,57.519c-0.144,0-0.243,0.072-0.286,0.162c0.043,0.089,0.143,0.161,0.286,0.161s0.243-0.072,0.286-0.161C24.755,57.591,24.655,57.519,24.512,57.519z"/><path d="M25.553,57.519c-0.144,0-0.243,0.072-0.286,0.162c0.043,0.089,0.143,0.161,0.286,0.161s0.243-0.072,0.286-0.161C25.796,57.591,25.696,57.519,25.553,57.519z"/><path d="M19.711,14.928c-0.3,0-0.533,0.068-0.702,0.203c-0.168,0.136-0.285,0.345-0.352,0.629c-0.067,0.284-0.102,0.651-0.102,1.103c0,0.557,0.075,1.007,0.224,1.35c0.147,0.344,0.471,0.516,0.97,0.516c0.329,0,0.579-0.095,0.751-0.285c0.171-0.19,0.281-0.424,0.331-0.704c0.048-0.28,0.072-0.599,0.072-0.956c0-0.614-0.081-1.078-0.244-1.389C20.497,15.083,20.181,14.928,19.711,14.928z"/><path d="M21.677,55.403c0.143,0,0.243-0.071,0.286-0.16c-0.043-0.09-0.144-0.163-0.286-0.163c-0.144,0-0.243,0.073-0.286,0.163C21.434,55.332,21.533,55.403,21.677,55.403z"/><path d="M20.234,53.812c-0.021,0-0.034,0.013-0.054,0.016c0.099,0.021,0.2,0.035,0.292,0.065C20.413,53.846,20.333,53.812,20.234,53.812z"/><path d="M32.298,63.139l-0.047-6.118h-0.502l-0.047,6.118c-0.013,0.32-0.063,0.6-0.136,0.851C31.711,63.991,31.854,64,32,64s0.289-0.009,0.434-0.011C32.361,63.738,32.311,63.459,32.298,63.139z"/><path d="M21.13,54.757c0.144,0,0.243-0.071,0.286-0.161c-0.043-0.09-0.143-0.162-0.286-0.162s-0.243,0.072-0.286,0.162C20.887,54.686,20.986,54.757,21.13,54.757z"/><path d="M22.723,56.524c-0.144,0-0.243,0.072-0.286,0.161c0.043,0.09,0.143,0.161,0.286,0.161c0.143,0,0.243-0.071,0.286-0.161C22.966,56.597,22.865,56.524,22.723,56.524z"/><path d="M31.895,53.598c4.894,0,8.861-0.148,8.908-5.408c-0.012-1.133-0.574-2.184-1.535-3.057c-1.606-1.452-4.308-0.67-7.373-0.67c-3.077,0-5.788-0.775-7.391,0.686c-0.951,0.87-1.505,1.913-1.518,3.038C23.037,52.86,27.002,53.598,31.895,53.598z M35.812,48.405c0-0.982,0.554-1.779,1.237-1.779c0.682,0,1.236,0.797,1.236,1.779c0,0.021-0.004,0.041-0.004,0.062s0.004,0.041,0.004,0.062c0,0.983-0.555,1.78-1.236,1.78c-0.684,0-1.237-0.797-1.237-1.78c0-0.021,0.004-0.041,0.005-0.062C35.815,48.446,35.812,48.427,35.812,48.405z M31.457,50.742c0-0.255,0.208-0.462,0.464-0.462c0.257,0,0.463,0.207,0.463,0.462c0,0.022-0.01,0.041-0.013,0.062c0.003,0.021,0.013,0.04,0.013,0.062c0,0.257-0.206,0.466-0.463,0.466c-0.256,0-0.464-0.209-0.464-0.466c0-0.022,0.01-0.041,0.013-0.062C31.467,50.783,31.457,50.765,31.457,50.742z M30.84,51.915c-0.026-0.077,0.014-0.163,0.092-0.19c0.077-0.026,0.162,0.013,0.189,0.092c0.119,0.335,0.439,0.562,0.796,0.562s0.676-0.228,0.795-0.562c0.028-0.079,0.113-0.118,0.189-0.092c0.08,0.027,0.12,0.113,0.091,0.19c-0.001,0.004-0.004,0.007-0.006,0.01c0.018,0.035,0.021,0.076,0.006,0.115c-0.16,0.455-0.593,0.761-1.075,0.761c-0.483,0-0.916-0.306-1.077-0.761c-0.013-0.038-0.01-0.078,0.007-0.112C30.845,51.923,30.842,51.92,30.84,51.915z M25.862,48.405c0-0.982,0.554-1.779,1.236-1.779c0.684,0,1.237,0.797,1.237,1.779c0,0.021-0.004,0.041-0.004,0.062s0.004,0.041,0.004,0.062c0,0.983-0.554,1.78-1.237,1.78c-0.683,0-1.236-0.797-1.236-1.78c0-0.021,0.004-0.041,0.005-0.062C25.866,48.446,25.862,48.427,25.862,48.405z"/><path d="M55.446,25.382c-0.158,0-0.314,0.031-0.469,0.094c-0.153,0.063-0.296,0.149-0.428,0.258c-0.132,0.107-0.253,0.234-0.365,0.38v2.206c0.216,0.281,0.433,0.461,0.647,0.538c0.214,0.078,0.405,0.117,0.571,0.117c0.305,0,0.542-0.101,0.716-0.302c0.174-0.2,0.29-0.439,0.35-0.717c0.06-0.279,0.089-0.564,0.089-0.857c0-0.451-0.075-0.851-0.225-1.197C56.183,25.554,55.887,25.382,55.446,25.382z"/><path d="M50.065,14.928c-0.314,0-0.554,0.113-0.723,0.342c-0.169,0.228-0.262,0.526-0.28,0.895h1.979C51.042,15.339,50.717,14.928,50.065,14.928z"/><path d="M32,0C14.327,0,0,14.327,0,32c0,15.932,11.643,29.138,26.883,31.588c0.302-0.45,0.342-0.924,0.342-0.924v-3.249c-4.697,1.049-5.671-2.219-5.671-2.219c-0.747-1.916-1.829-2.426-1.829-2.426c-0.553-0.379-0.683-0.614-0.629-0.762c-0.098-0.381,0.739-0.37,0.739-0.37c1.668,0.124,2.538,1.716,2.538,1.716c1.557,2.677,4.148,1.72,4.967,1.327c0.23-1.075,0.775-1.732,1.332-2.146c-4.148-0.473-6.496-1.914-7.69-4.142c-2.002,0.062-5.482,0.313-8.814,1.254l-0.042-0.145c0.011-0.003,0.022-0.006,0.034-0.009l-0.034-0.116c3.28-0.926,6.698-1.186,8.725-1.254c-0.095-0.195-0.186-0.394-0.264-0.601c-2.045-0.077-5.312-0.056-8.498,0.581l-0.028-0.146c0.008-0.002,0.016-0.003,0.023-0.004l-0.023-0.121c3.147-0.63,6.374-0.661,8.432-0.587c-0.397-1.177-0.567-2.517-0.567-4.009c0-0.017,0.002-0.033,0.002-0.05c0-0.025-0.002-0.05-0.002-0.075c0-2.028,0.727-3.683,1.917-4.985c-0.133-0.351-0.38-1.16-0.333-2.309c0.017-0.762,0.159-1.669,0.567-2.687c0,0,1.577-0.5,5.155,1.939c1.5-0.411,3.109-0.613,4.7-0.613c1.447,0,2.892,0.167,4.249,0.506c3.467-2.318,4.998-1.832,4.998-1.832c0.447,1.117,0.578,2.105,0.57,2.909c0.006,0.76-0.113,1.356-0.228,1.751c1.337,1.35,2.161,3.114,2.161,5.32c0,0.03-0.002,0.06-0.002,0.09c0,0.012,0.002,0.023,0.002,0.035c0,1.497-0.099,2.839-0.407,4.018c2.042-0.084,5.395-0.075,8.664,0.578l-0.025,0.12c0.009,0.002,0.018,0.003,0.025,0.005l-0.03,0.146c-3.295-0.658-6.681-0.659-8.705-0.573c-0.062,0.202-0.133,0.396-0.207,0.589c2.004,0.06,5.513,0.31,8.875,1.258l-0.031,0.117c0.01,0.003,0.021,0.005,0.031,0.008l-0.039,0.145c-3.404-0.961-6.965-1.203-8.943-1.257c-0.987,2.24-3.126,3.688-7.542,4.154c0.728,0.547,1.428,1.528,1.428,3.295v0.125v4.699c0,0,0.04,0.474,0.342,0.924C52.357,61.138,64,47.932,64,32C64,14.327,49.673,0,32,0z M19.047,55.825l0.323-1.126l0.315,1.102c0.009,0.041,0.013,0.11,0.007,0.185c0.021,0.152,0.009,0.437-0.345,0.443c-0.372-0.07-0.307-0.445-0.302-0.47C19.041,55.886,19.047,55.825,19.047,55.825z M37.026,14.896l2.288-0.467c0.029,0.192,0.043,0.467,0.043,0.825c0.257-0.257,0.529-0.459,0.815-0.604c0.287-0.147,0.62-0.221,0.995-0.221c0.351,0,0.687,0.069,1.008,0.206c0.321,0.138,0.564,0.39,0.727,0.759c0.329-0.39,0.646-0.648,0.948-0.775c0.305-0.126,0.616-0.19,0.938-0.19c0.572,0,1.012,0.136,1.322,0.407c0.312,0.271,0.467,0.687,0.467,1.246v1.675c0,0.202,0.01,0.355,0.029,0.459c0.02,0.103,0.078,0.183,0.174,0.243c0.096,0.06,0.248,0.09,0.458,0.09h0.189v0.498H44.42v-0.498c0.249,0,0.427-0.028,0.531-0.084c0.104-0.057,0.169-0.135,0.192-0.233c0.023-0.1,0.035-0.258,0.035-0.475v-1.642c0-0.239-0.054-0.459-0.16-0.662c-0.107-0.202-0.35-0.303-0.729-0.303c-0.271,0-0.506,0.068-0.705,0.203c-0.198,0.135-0.351,0.321-0.458,0.559c-0.105,0.235-0.16,0.501-0.16,0.794v1.051c0,0.225,0.015,0.386,0.041,0.485c0.027,0.1,0.097,0.176,0.21,0.228c0.111,0.053,0.294,0.079,0.546,0.079v0.498h-2.948v-0.498c0.242,0,0.416-0.027,0.523-0.082c0.106-0.054,0.172-0.131,0.195-0.232c0.022-0.101,0.035-0.261,0.035-0.478V16.05c0-0.38-0.101-0.625-0.299-0.734c-0.199-0.11-0.384-0.165-0.557-0.165c-0.231,0-0.457,0.056-0.673,0.168c-0.217,0.112-0.383,0.256-0.493,0.433c-0.08,0.13-0.132,0.258-0.154,0.385c-0.023,0.127-0.036,0.285-0.036,0.477v1.144c0,0.225,0.014,0.386,0.041,0.485s0.099,0.176,0.214,0.228c0.115,0.053,0.299,0.079,0.548,0.079v0.498h-2.965v-0.498c0.246,0,0.422-0.026,0.528-0.079c0.106-0.052,0.173-0.129,0.197-0.23c0.025-0.101,0.039-0.262,0.039-0.482v-1.854c0-0.339-0.22-0.51-0.656-0.51h-0.277V14.896z M27.749,18.549c0.212,0,0.374-0.021,0.487-0.063c0.112-0.041,0.189-0.116,0.233-0.225c0.043-0.108,0.063-0.276,0.063-0.504V13.14c0-0.178-0.023-0.306-0.072-0.388c-0.05-0.082-0.124-0.135-0.225-0.16c-0.102-0.025-0.265-0.042-0.487-0.049v-0.499l2.183-0.477v4.992l1.523-1.041c0.101-0.076,0.166-0.129,0.192-0.157c0.027-0.03,0.041-0.066,0.041-0.108c0-0.098-0.085-0.147-0.255-0.147h-0.305v-0.499h2.299v0.499c-0.376,0.036-0.786,0.206-1.229,0.509l-0.554,0.391l1.453,1.961c0.151,0.195,0.278,0.342,0.382,0.437c0.103,0.096,0.216,0.145,0.339,0.145v0.498h-2.689v-0.498c0.318,0,0.478-0.064,0.478-0.19c0-0.087-0.039-0.179-0.119-0.276l-0.986-1.3l-0.569,0.391v0.676c0,0.217,0.022,0.376,0.065,0.475c0.044,0.101,0.104,0.161,0.185,0.188c0.08,0.024,0.204,0.038,0.374,0.038v0.498h-2.807V18.549z M31.739,22.661c0,0.216-0.076,0.402-0.229,0.555c-0.154,0.154-0.341,0.229-0.557,0.229c-0.213,0-0.398-0.077-0.556-0.235c-0.157-0.156-0.236-0.34-0.236-0.549c0-0.219,0.078-0.403,0.234-0.559c0.154-0.155,0.341-0.233,0.558-0.233c0.22,0,0.406,0.076,0.559,0.228C31.664,22.248,31.739,22.436,31.739,22.661z M22.941,18.549h0.282c0.303,0,0.489-0.059,0.558-0.175c0.068-0.114,0.103-0.32,0.103-0.617v-1.583c0-0.241-0.024-0.414-0.074-0.52c-0.048-0.104-0.136-0.174-0.262-0.208c-0.126-0.034-0.328-0.052-0.606-0.052v-0.498l2.113-0.467c0.054,0.185,0.105,0.577,0.151,1.177c0.101-0.214,0.235-0.409,0.398-0.585c0.165-0.177,0.349-0.319,0.553-0.429c0.204-0.108,0.414-0.163,0.627-0.163c0.296,0,0.53,0.084,0.704,0.25c0.174,0.167,0.26,0.369,0.26,0.607c0,0.209-0.064,0.375-0.191,0.496c-0.129,0.12-0.28,0.182-0.453,0.182c-0.206,0-0.388-0.103-0.542-0.304c-0.072-0.091-0.133-0.156-0.179-0.195c-0.048-0.041-0.114-0.06-0.201-0.06c-0.282,0-0.501,0.153-0.658,0.458c-0.157,0.305-0.235,0.623-0.235,0.951v0.942c0,0.304,0.039,0.512,0.116,0.623c0.078,0.111,0.283,0.169,0.614,0.169h0.288v0.498h-3.365V18.549z M11.567,28.449c-0.238,0.365-0.562,0.644-0.968,0.837c-0.406,0.192-0.852,0.29-1.335,0.29c-0.456,0-0.887-0.09-1.293-0.267c-0.407-0.176-0.739-0.445-0.997-0.808c-0.259-0.36-0.388-0.804-0.388-1.327c0-0.783,0.267-1.379,0.802-1.785c0.534-0.406,1.17-0.61,1.908-0.61c0.549,0,1.022,0.109,1.42,0.325c0.397,0.217,0.698,0.508,0.902,0.873s0.306,0.76,0.306,1.187C11.925,27.655,11.805,28.084,11.567,28.449z M11.463,19.047v-0.498c0.448,0,0.736-0.066,0.865-0.198c0.128-0.131,0.192-0.355,0.192-0.67v-4.618c0-0.209-0.021-0.373-0.065-0.49c-0.043-0.118-0.142-0.21-0.295-0.277s-0.386-0.1-0.697-0.1v-0.499h6.016l0.056,1.908h-0.51c-0.091-0.408-0.211-0.706-0.361-0.894c-0.149-0.188-0.318-0.303-0.504-0.347c-0.186-0.043-0.445-0.065-0.777-0.065H14.07v2.597h0.688c0.325,0,0.545-0.057,0.661-0.169c0.116-0.111,0.185-0.358,0.207-0.742h0.498v2.444h-0.509c-0.018-0.282-0.051-0.484-0.1-0.606c-0.049-0.124-0.131-0.208-0.249-0.255c-0.118-0.047-0.293-0.071-0.528-0.071H14.07v2.184c0,0.297,0.059,0.515,0.176,0.657c0.118,0.14,0.396,0.211,0.837,0.211h0.152v0.498H11.463z M18.776,29.396h-2.809v-0.498c0.213,0,0.366-0.028,0.458-0.083c0.092-0.058,0.149-0.14,0.17-0.247c0.022-0.109,0.032-0.288,0.032-0.537v-1.533c0-0.308-0.044-0.551-0.135-0.73c-0.09-0.178-0.274-0.267-0.552-0.267c-0.379,0-0.662,0.145-0.849,0.436c-0.186,0.291-0.279,0.626-0.279,1.006v1.214c0,0.286,0.042,0.48,0.125,0.585c0.083,0.105,0.262,0.157,0.537,0.157v0.498h-2.862v-0.498c0.235,0,0.408-0.021,0.521-0.062c0.112-0.042,0.186-0.114,0.222-0.222c0.037-0.107,0.055-0.275,0.055-0.507v-1.751c0-0.252-0.049-0.418-0.147-0.496c-0.097-0.077-0.314-0.116-0.65-0.116v-0.498l2.109-0.467c0.032,0.21,0.048,0.405,0.048,0.585c0,0.048,0,0.088-0.002,0.122s-0.002,0.073-0.002,0.117c0.227-0.243,0.464-0.441,0.71-0.594c0.246-0.154,0.552-0.23,0.921-0.23c0.31,0,0.59,0.056,0.836,0.168c0.249,0.112,0.443,0.282,0.583,0.51c0.142,0.228,0.212,0.502,0.212,0.823v1.827c0,0.304,0.041,0.512,0.121,0.623c0.082,0.112,0.291,0.168,0.628,0.168V29.396z M19.737,19.227c-0.454,0-0.885-0.09-1.293-0.267c-0.406-0.177-0.738-0.445-0.995-0.808c-0.26-0.361-0.389-0.804-0.389-1.327c0-0.784,0.268-1.38,0.803-1.786c0.534-0.406,1.17-0.61,1.907-0.61c0.55,0,1.023,0.109,1.42,0.326c0.398,0.217,0.698,0.507,0.902,0.873c0.205,0.365,0.307,0.76,0.307,1.187c0,0.49-0.12,0.92-0.358,1.284c-0.237,0.365-0.561,0.645-0.967,0.837C20.667,19.129,20.222,19.227,19.737,19.227z M29.102,26.498c-0.21,0.021-0.368,0.055-0.475,0.1s-0.18,0.123-0.219,0.233c-0.04,0.109-0.06,0.281-0.06,0.512v1.724c-0.524,0-1.091,0.069-1.702,0.206c-0.44,0.098-0.771,0.165-0.991,0.203c-0.222,0.037-0.481,0.058-0.781,0.058c-0.795,0-1.477-0.187-2.043-0.559c-0.567-0.372-0.993-0.851-1.277-1.437c-0.284-0.585-0.425-1.187-0.425-1.805c0-0.708,0.168-1.354,0.504-1.938s0.792-1.042,1.365-1.377c0.575-0.334,1.204-0.502,1.887-0.502c0.83,0,1.588,0.287,2.271,0.863c0.082-0.156,0.149-0.37,0.2-0.641h0.525l0.054,2.406h-0.498c-0.075-0.364-0.219-0.699-0.429-1.003c-0.209-0.303-0.47-0.543-0.783-0.72c-0.312-0.178-0.655-0.266-1.032-0.266c-0.274,0-0.543,0.047-0.808,0.144c-0.263,0.096-0.51,0.262-0.739,0.498c-0.229,0.237-0.413,0.56-0.553,0.969c-0.14,0.408-0.209,0.911-0.209,1.512c0,0.513,0.055,1.005,0.162,1.479c0.109,0.475,0.33,0.881,0.662,1.22c0.332,0.34,0.802,0.51,1.409,0.51c0.477,0,0.838-0.074,1.083-0.226c0.247-0.149,0.405-0.332,0.48-0.55c0.074-0.217,0.111-0.459,0.111-0.727c0-0.253-0.019-0.437-0.058-0.552c-0.037-0.116-0.126-0.201-0.265-0.255c-0.14-0.055-0.354-0.081-0.644-0.081v-0.499h3.274V26.498z M32.353,29.396H29.41v-0.498h0.156c0.211,0,0.363-0.029,0.458-0.086c0.096-0.059,0.155-0.141,0.177-0.244c0.021-0.105,0.032-0.259,0.032-0.461v-1.609c0-0.225-0.014-0.384-0.04-0.478c-0.027-0.095-0.098-0.162-0.212-0.205c-0.114-0.044-0.305-0.067-0.571-0.071v-0.498l2.222-0.467v3.328c0,0.304,0.038,0.512,0.114,0.623c0.076,0.112,0.278,0.168,0.606,0.168V29.396z M35.698,29.31c-0.26,0.177-0.565,0.267-0.916,0.267c-0.426,0-0.74-0.087-0.942-0.26c-0.202-0.174-0.327-0.368-0.374-0.583c-0.047-0.214-0.071-0.456-0.071-0.724v-2.553h-0.817v-0.5c0.343,0,0.641-0.063,0.895-0.194c0.252-0.13,0.451-0.306,0.599-0.525c0.146-0.221,0.239-0.457,0.279-0.71h0.444v1.43h1.533v0.5h-1.533v2.585c0,0.313,0.02,0.541,0.062,0.681c0.041,0.139,0.144,0.209,0.306,0.209c0.173,0,0.316-0.068,0.428-0.203c0.112-0.137,0.221-0.305,0.325-0.508l0.467,0.212C36.187,28.842,35.96,29.134,35.698,29.31z M45.466,22.546c-0.308,0-0.535,0.035-0.683,0.104c-0.149,0.068-0.243,0.161-0.284,0.278c-0.043,0.118-0.063,0.279-0.063,0.485v4.618c0,0.198,0.02,0.356,0.058,0.474c0.038,0.118,0.133,0.213,0.285,0.284c0.15,0.073,0.38,0.109,0.688,0.109v0.498h-3.615v-0.498c0.297,0,0.521-0.032,0.672-0.099c0.152-0.063,0.25-0.157,0.293-0.28c0.043-0.124,0.065-0.286,0.065-0.488v-2.206h-3.41v2.206c0,0.304,0.064,0.523,0.19,0.661s0.415,0.206,0.868,0.206v0.498h-3.644v-0.498c0.293,0,0.517-0.032,0.67-0.099c0.154-0.063,0.253-0.156,0.298-0.277c0.045-0.122,0.068-0.284,0.068-0.491v-4.618c0-0.206-0.022-0.367-0.066-0.485c-0.043-0.117-0.138-0.21-0.287-0.278c-0.147-0.068-0.375-0.104-0.683-0.104v-0.498h3.644v0.498c-0.449,0-0.738,0.066-0.865,0.201c-0.128,0.134-0.193,0.356-0.193,0.666v1.811h3.41v-1.811c0-0.206-0.021-0.367-0.061-0.485c-0.039-0.117-0.133-0.21-0.281-0.278c-0.147-0.068-0.377-0.104-0.688-0.104v-0.498h3.615V22.546z M51.934,29.364c-0.104,0.008-0.286,0.02-0.547,0.035c-0.261,0.017-0.553,0.04-0.876,0.07c-0.323,0.031-0.581,0.067-0.776,0.106v-0.792c-0.467,0.535-1.025,0.803-1.675,0.803c-0.474,0-0.824-0.102-1.051-0.305c-0.229-0.202-0.37-0.425-0.425-0.668c-0.053-0.244-0.08-0.505-0.08-0.784v-1.598c0-0.213-0.014-0.37-0.039-0.47s-0.092-0.175-0.2-0.227c-0.108-0.053-0.287-0.079-0.536-0.079v-0.5h2.173v2.987c0,0.615,0.237,0.922,0.71,0.922c0.271,0,0.501-0.097,0.688-0.29c0.188-0.194,0.333-0.379,0.435-0.556v-1.788c0-0.225-0.015-0.386-0.041-0.483c-0.027-0.097-0.097-0.17-0.209-0.219s-0.299-0.073-0.558-0.073v-0.5h2.205v3.264c0,0.169,0.017,0.298,0.049,0.38c0.033,0.083,0.106,0.146,0.222,0.191c0.116,0.046,0.294,0.07,0.531,0.074V29.364z M50.299,19.227c-0.415,0-0.794-0.061-1.135-0.18s-0.632-0.285-0.87-0.498s-0.422-0.466-0.548-0.755s-0.189-0.6-0.189-0.932c0-0.437,0.105-0.842,0.316-1.214c0.211-0.372,0.516-0.668,0.908-0.888c0.394-0.221,0.844-0.332,1.351-0.332c0.494,0,0.912,0.107,1.254,0.321c0.342,0.213,0.594,0.489,0.757,0.829c0.162,0.34,0.243,0.702,0.243,1.084h-3.333c0.003,0.069,0.014,0.214,0.029,0.438c0.017,0.226,0.067,0.454,0.152,0.688c0.085,0.235,0.23,0.434,0.439,0.594c0.207,0.161,0.486,0.242,0.837,0.242c0.19,0,0.423-0.051,0.692-0.147c0.271-0.098,0.507-0.285,0.705-0.563l0.424,0.287C51.905,18.884,51.229,19.227,50.299,19.227z M57.336,28.898c-0.229,0.221-0.491,0.389-0.786,0.503c-0.295,0.117-0.605,0.175-0.935,0.175c-0.387,0-0.719-0.075-0.997-0.226c-0.279-0.15-0.509-0.342-0.688-0.577c-0.332,0.332-0.573,0.601-0.721,0.803h-0.424v-6.005c0-0.206-0.023-0.357-0.072-0.453c-0.049-0.097-0.131-0.156-0.243-0.185c-0.114-0.026-0.291-0.044-0.529-0.051v-0.488l2.244-0.478v3.508c0.184-0.174,0.398-0.324,0.642-0.452c0.244-0.129,0.563-0.193,0.957-0.193c0.368,0,0.696,0.067,0.983,0.201c0.287,0.133,0.526,0.314,0.718,0.541c0.192,0.228,0.336,0.481,0.432,0.759c0.096,0.278,0.144,0.565,0.144,0.861c0,0.348-0.064,0.672-0.19,0.975C57.743,28.417,57.565,28.678,57.336,28.898z"/><path d="M29.595,63.9c0.104-0.428,0.117-0.788,0.117-0.788v-5.92c-0.519,0.367-0.598,1.227-0.603,1.678c0.002,0.096,0.006,0.164,0.006,0.164v0.125v3.557v0.125c0,0.406-0.087,0.733-0.223,1.007C29.125,63.87,29.36,63.883,29.595,63.9z"/><path d="M26.608,57.345c-0.144,0-0.243,0.072-0.286,0.162c0.043,0.09,0.143,0.161,0.286,0.161s0.243-0.071,0.286-0.161C26.852,57.417,26.752,57.345,26.608,57.345z"/><path d="M20.234,53.938c-0.144,0-0.243,0.071-0.286,0.161c0.043,0.09,0.143,0.161,0.286,0.161s0.244-0.071,0.287-0.161C20.479,54.009,20.378,53.938,20.234,53.938z"/><path d="M34.885,62.841v-0.125v-3.557v-0.125c0,0,0.004-0.062,0.006-0.149c-0.005-0.424-0.086-1.236-0.604-1.64v5.867c0,0,0.013,0.36,0.118,0.788c0.233-0.018,0.469-0.03,0.702-0.053C34.972,63.574,34.885,63.247,34.885,62.841z"/></g></svg>
		<svg version="1.1" baseProfile="tiny" id="svg-logo" xmlns="http://www.w3.org/2000/svg" xmlns:xlink="http://www.w3.org/1999/xlink" x="0px" y="0px" width="256px" height="128px" viewBox="0 0 256 128" overflow="inherit" xml:space="preserve"><path d="M80.665,42.909v-3.99L76.88,38.16c-0.237-1.722-0.687-3.375-1.34-4.929l2.914-2.562l-1.995-3.459l-3.741,1.269c-1.047-1.31-2.247-2.488-3.586-3.498l1.29-3.808l-3.46-1.999l-2.719,3.099c-1.492-0.571-3.064-0.966-4.701-1.166l-0.828-4.142H54.72l-0.85,4.259c-1.56,0.254-3.061,0.688-4.474,1.282l-2.926-3.332l-3.456,1.999l1.452,4.304c-1.159,0.949-2.202,2.031-3.124,3.214l-4.373-1.48l-1.995,3.459l3.509,3.082c-0.52,1.352-0.897,2.772-1.111,4.247l-4.608,0.921v3.99l4.608,0.924c0.214,1.475,0.592,2.893,1.111,4.243l-3.509,3.084l1.992,3.459l4.376-1.479c0.921,1.181,1.965,2.263,3.124,3.213l-1.452,4.303l3.454,1.997l2.928-3.329c1.413,0.595,2.914,1.028,4.474,1.281l0.85,4.259h3.992l0.828-4.142c1.637-0.205,3.209-0.596,4.701-1.166l2.724,3.096l3.456-1.997l-1.29-3.811c1.339-1.008,2.54-2.182,3.586-3.495l3.741,1.269l1.995-3.459l-2.914-2.562c0.653-1.554,1.104-3.212,1.34-4.928L80.665,42.909z M56.715,50.896c-5.51,0-9.979-4.467-9.979-9.982c0-5.511,4.47-9.979,9.979-9.979c5.516,0,9.982,4.468,9.982,9.979C66.697,46.43,62.23,50.896,56.715,50.896z M63.785,61.31v27.547c0,5.937-0.427,10.176-1.279,12.718s-2.92,4.754-6.204,6.637c-3.285,1.882-7.249,2.824-11.894,2.824c-3.05,0-5.544-0.536-7.482-1.608c-1.938-1.071-2.906-2.554-2.906-4.453c0-1.4,0.501-2.569,1.505-3.503c1.003-0.935,2.22-1.402,3.648-1.402c2.418,0,4.067,1.25,4.946,3.751c0.605,1.677,1.525,2.516,2.762,2.516c1.32,0,2.247-0.694,2.783-2.083c0.536-1.389,0.804-4.309,0.804-8.761V68.246c0-2.034-0.324-3.449-0.969-4.247c-0.304-0.375-0.804-0.653-1.469-0.853l1.798-2.044c0.901,0.325,1.826,0.589,2.768,0.79l0.893,4.473h6.452l0.862-4.314c1.017-0.179,2.013-0.426,2.98-0.741L63.785,61.31z M51.5,46.169c-1.457-1.469-2.185-3.222-2.185-5.255c0-2.034,0.728-3.786,2.185-5.256c1.457-1.471,3.202-2.206,5.236-2.206c2.034,0,3.772,0.729,5.214,2.184c1.443,1.458,2.165,3.215,2.165,5.278c0,2.061-0.722,3.819-2.165,5.275c-1.442,1.458-3.181,2.185-5.214,2.185C54.701,48.375,52.956,47.639,51.5,46.169z M223.235,64.535v4.534c-2.089,0.359-3.45,0.97-4.08,1.836c-0.633,0.864-0.949,2.658-0.949,5.378v11.709c-0.879-0.056-1.594-0.082-2.145-0.082c-2.721,0-7.322,0.7-13.811,2.102c-4.643,0.989-8.532,1.484-11.667,1.484c-8.491,0-15.363-2.837-20.612-8.514c-5.249-5.674-7.873-12.291-7.873-19.848c0-8.108,2.771-15.082,8.307-20.923c5.539-5.839,12.402-8.759,20.592-8.759c6.679,0,12.546,2.13,17.604,6.39c0.879-1.814,1.414-3.751,1.607-5.813h4.412l0.492,19.541h-4.494c-2.829-9.509-8.354-14.264-16.569-14.264c-4.896,0-8.624,1.8-11.192,5.4c-2.572,3.602-3.855,9.647-3.855,18.139c0,5.964,0.378,10.5,1.134,13.604c0.756,3.106,2.212,5.511,4.37,7.215c2.156,1.705,4.953,2.556,8.39,2.556c3.049,0,5.577-0.659,7.583-1.979c2.007-1.319,3.012-3.916,3.012-7.792v-2.061c0-3.271-2.145-5.044-6.433-5.319v-4.534H223.235z M162.883,40.337c-1.194,1.209-3.084,4.865-5.668,10.965l-16.985,39.699h-5.07l-19.086-42.873c-1.539-3.462-2.598-5.683-3.174-6.658c-0.577-0.976-1.347-1.711-2.308-2.206c-0.444-0.229-1.025-0.397-1.714-0.521v11.692h-4.617c-0.824-3.655-2.391-6.664-4.7-9.027c-2.308-2.364-4.905-3.546-7.792-3.546c-2.171,0-3.896,0.605-5.173,1.814c-1.278,1.21-1.917,2.72-1.917,4.534c0,1.402,0.413,2.701,1.237,3.896c0.825,1.195,1.938,2.185,3.339,2.967c1.402,0.784,4.37,2.233,8.905,4.35c4.067,1.925,7.077,3.641,9.028,5.152c1.951,1.512,3.497,3.416,4.638,5.71c1.14,2.295,1.71,4.776,1.71,7.441c0,4.947-1.828,9.063-5.482,12.347c-3.656,3.285-8.012,4.925-13.069,4.925c-2.885,0-5.709-0.604-8.472-1.813c-2.761-1.209-4.967-2.816-6.616-4.823c-0.633,1.238-1.1,2.749-1.401,4.535h-4.947V69.772h4.947c1.374,5.716,3.435,9.798,6.183,12.244c2.749,2.446,5.716,3.669,8.905,3.669c2.364,0,4.247-0.702,5.648-2.103c1.402-1.402,2.103-3.051,2.103-4.946c0-1.347-0.44-2.695-1.319-4.041c-0.88-1.346-2.968-2.846-6.267-4.495c-6.348-3.159-10.636-5.475-12.862-6.945c-2.226-1.47-4.013-3.359-5.359-5.668c-0.357-0.612-0.66-1.252-0.922-1.913l2.538,0.861l3.224-5.59l-3.048-2.68c0.374-1.043,0.666-2.122,0.875-3.229l3.972-0.799v-6.447l-2.859-0.573c3.305-2.76,7.085-4.159,11.351-4.159c4.754,0,8.794,1.594,12.12,4.782c0.55-0.824,1.003-2.088,1.36-3.792h1.837h2.903h26.818v4.576c-4.151,0-6.225,1.017-6.225,3.05c0,1.128,0.592,2.982,1.771,5.565l11.462,25.354l10.759-25.395c0.797-1.869,1.195-3.447,1.195-4.741c0-2.556-2.074-3.833-6.225-3.833v-4.576h19.663v4.576C165.815,38.523,164.078,39.128,162.883,40.337z"/></svg>
		<svg version="1.1" id="svg-torch" xmlns="http://www.w3.org/2000/svg" xmlns:xlink="http://www.w3.org/1999/xlink" x="0px" y="0px" width="86px" height="270px" viewBox="0 0 86 270" enable-background="new 0 0 86 270" xml:space="preserve"><g><linearGradient id="package_1" gradientUnits="userSpaceOnUse" x1="37.5576" y1="192.416" x2="50.3257" y2="192.416"><stop offset="0" style="stop-color:#B33F38"/><stop offset="0.4944" style="stop-color:#BA190E"/><stop offset="0.5899" style="stop-color:#F0F0EF"/><stop offset="0.6798" style="stop-color:#AA120F"/><stop offset="1" style="stop-color:#DC322C"/></linearGradient><path fill="url(#package_1)" d="M37.558,124.012c2.409,0.562,9.877,0.562,12.768,0.161c-4.175,28.909-2.649,124.468-1.847,136.192c-0.883,0.242-4.818,1.045-6.746-0.321C43.019,240.129,42.858,158.542,37.558,124.012z"/><path fill="#C99413" d="M56.436,86.511c-1.564-0.216-2.971-0.36-4.364-0.407c-0.362-0.02-0.573,0.131-0.653,0.518c-0.584,3.096-1.128,6.258-1.642,9.467c1.956-0.091,3.903-0.228,5.813-0.412c0.443-2.942,0.912-5.74,1.41-8.367C57.069,86.867,56.889,86.596,56.436,86.511z M37.435,86.19c-1.456,0.04-3.151,0.184-4.575,0.42c-0.278,0.042-0.557,0.253-0.497,0.775c0.415,2.678,0.8,5.522,1.159,8.51c1.818,0.128,3.723,0.224,5.685,0.28c-0.395-3.251-0.818-6.454-1.276-9.586C37.912,86.454,37.777,86.178,37.435,86.19z"/><linearGradient id="package_2" gradientUnits="userSpaceOnUse" x1="63.686" y1="104.3916" x2="27.0875" y2="110.8449"><stop offset="0" style="stop-color:#B33F38"/><stop offset="0.1742" style="stop-color:#BA190E"/><stop offset="0.264" style="stop-color:#E6F4F8"/><stop offset="0.4213" style="stop-color:#AA120F"/><stop offset="1" style="stop-color:#DC322C"/></linearGradient><path fill="url(#package_2)" d="M62.839,99.593h-1.113c-0.047-0.422-7.978-0.762-17.755-0.762c-9.777,0-17.707,0.34-17.754,0.762h-1.114c0.03-0.662,8.465-1.197,18.868-1.197C54.374,98.396,62.809,98.931,62.839,99.593z M43.973,103.005c-9.784,0-17.717,0.504-17.745,1.126h1.047c0.044-0.396,7.502-0.717,16.698-0.717c9.195,0,16.654,0.32,16.698,0.717h1.047C61.689,103.509,53.757,103.005,43.973,103.005z M43.939,107.188c-9.269,0-16.784,0.477-16.811,1.067h0.992c0.042-0.376,7.107-0.679,15.819-0.679s15.778,0.303,15.82,0.679h0.992C60.724,107.666,53.208,107.188,43.939,107.188z M43.975,111.65c-8.718,0-15.788,0.449-15.813,1.004h0.934c0.04-0.354,6.685-0.639,14.88-0.639c8.194,0,14.841,0.285,14.881,0.639h0.933C59.764,112.099,52.694,111.65,43.975,111.65z M43.977,116.106c-8.206,0-14.86,0.422-14.884,0.945h0.879c0.037-0.333,6.292-0.602,14.005-0.602c7.712,0,13.969,0.268,14.006,0.602h0.877C58.837,116.528,52.183,116.106,43.977,116.106z"/><linearGradient id="package_3" gradientUnits="userSpaceOnUse" x1="29.0151" y1="110.8164" x2="62.0447" y2="104.9924"><stop offset="0" style="stop-color:#B33F38"/><stop offset="0.1742" style="stop-color:#BA190E"/><stop offset="0.264" style="stop-color:#E6F4F8"/><stop offset="0.4213" style="stop-color:#AA120F"/><stop offset="1" style="stop-color:#DC322C"/></linearGradient><path fill="url(#package_3)" d="M27.009,99.344l0.166,1.036c0.933-0.116,2.157-0.221,3.603-0.311l-0.208-1.043C29.128,99.118,27.917,99.225,27.009,99.344z M57.581,99.035l-0.309,1.036c1.408,0.089,2.594,0.191,3.513,0.304l0.265-1.023C60.164,99.234,58.989,99.127,57.581,99.035z M28.02,103.897l0.156,0.974c0.877-0.109,2.028-0.208,3.388-0.292l-0.196-0.981C30.014,103.685,28.874,103.785,28.02,103.897z M56.772,103.606l-0.291,0.975c1.325,0.083,2.44,0.18,3.304,0.286l0.249-0.962C59.203,103.794,58.097,103.693,56.772,103.606z M28.826,108.033l0.148,0.923c0.831-0.103,1.922-0.196,3.21-0.277l-0.186-0.93C30.715,107.832,29.635,107.927,28.826,108.033z M56.066,107.757l-0.276,0.923c1.255,0.079,2.312,0.17,3.131,0.271l0.236-0.912C58.368,107.935,57.321,107.84,56.066,107.757z M29.759,112.445l0.139,0.868c0.782-0.097,1.808-0.185,3.02-0.261l-0.175-0.874C31.535,112.255,30.52,112.345,29.759,112.445z M55.383,112.185l-0.26,0.869c1.181,0.074,2.174,0.16,2.944,0.255l0.222-0.857C57.548,112.353,56.562,112.263,55.383,112.185z M30.597,116.854l0.13,0.817c0.736-0.092,1.702-0.174,2.842-0.245l-0.165-0.823C32.269,116.675,31.313,116.76,30.597,116.854z M54.542,116.61l-0.261,0.817c1.11,0.07,2.235,0.15,2.96,0.24l0.209-0.807C56.751,116.767,55.653,116.683,54.542,116.61z"/><linearGradient id="package_4" gradientUnits="userSpaceOnUse" x1="45.9688" y1="98.3691" x2="42.4437" y2="87.5202"><stop offset="0" style="stop-color:#9D967F"/><stop offset="0.3652" style="stop-color:#D2D0BB"/><stop offset="0.5449" style="stop-color:#A1A597"/><stop offset="0.736" style="stop-color:#A1A597"/><stop offset="0.9045" style="stop-color:#ECF5ED"/><stop offset="1" style="stop-color:#D3E9F8"/></linearGradient><path fill="url(#package_4)" d="M59.862,93.854c0.551-0.551,1.095-1.014,1.237-1.348c-4.945-1.815-30.054-1.578-34.061,0.028c0.146,0.438,0.855,1.213,1.207,1.565C35.589,95.092,50.248,95.569,59.862,93.854z"/><g><defs><path id="package_5" d="M8.006,19.378C-2.111,39.775,14.11,82.817,28.243,92.454c7.95,0.963,26.58,0.803,31.559-0.241c8.352-2.248,27.544-63.599,12.768-78.856C57.794-1.901,18.125-1.018,8.006,19.378z"/></defs><clipPath id="package_6"><use xlink:href="#package_5" overflow="visible"/></clipPath><g clip-path="url(#package_6)"><linearGradient id="package_7" gradientUnits="userSpaceOnUse" x1="19.8687" y1="23.7412" x2="72.0039" y2="114.0421"><stop offset="0" style="stop-color:#B14A0C"/><stop offset="0.2528" style="stop-color:#FDD23E"/><stop offset="0.4157" style="stop-color:#FAED5D"/><stop offset="0.5225" style="stop-color:#FFFFFF"/><stop offset="0.8202" style="stop-color:#FAED5D"/><stop offset="1" style="stop-color:#DD7115"/></linearGradient><path fill="url(#package_7)" d="M29.688,119.917c-0.451-1.566-4.476-4.344-4.361-5.642c-1.194-0.761-1.698-1.952-1.799-3.045c2.768-1.177,6.574-4.568,8.097-6.505c-1.799-1.799-5.952-6.99-9.62-5.052c-1.107-2.422-2.353-6.575-1.315-8.028c1.263-1.768,4.499-2.768,4.36-6.367c-0.138-3.599,1.384-3.115,2.492-2.492c0-1.522-0.969-1.661-2.354-3.322c-1.384-1.661-3.875-11.004-7.474-4.983c-1.73-3.253,1.245-4.395,0.554-5.814c-8.167-16.748-4.429-21.385-1.246-25.191c-0.276,2.215,0.416,3.876,3.46,3.945c2.845,0.064,5.813-1.453,5.813-1.453s-2.076,6.782-0.692,6.229c1.384-0.554,2.007-2.284,2.699-1.454c0.692,0.831,2.007,2.422,3.115,2.422s2.629-3.599,2.907-6.99c1.246,1.592,6.046,2.117,7.197-0.899c1.454-3.807,5.075-6.458,4.568-8.374c-0.623-2.353-5.26-6.367-5.398-10.174c2.215,2.63,5.26,4.845,4.983,3.46c-0.277-1.384-0.554-5.537-4.014-10.796c1.938,1.661,2.907,1.8,4.429,3.184c-0.692-2.63-1.984-7.613-5.26-10.935c11.211,1.846,17.855,12.596,18.547,14.118c0.83-1.107,4.706-3.184,5.536-5.952c0,2.215-3.737,14.395-1.521,15.502c2.214,1.107,0.83,9.62,4.568,6.99c0.83,3.944-1.108,6.159-1.108,6.159s2.461,1.816,1.246,4.637c-1.73,4.014-1.246,7.682,2.768,5.19c-0.345,5.329-9.135,8.859-9.135,8.859s-2.285,4.429-5.813,5.398c0.484,1.177,0.623,2.007,0.276,3.875c1.523,0.831,3.045,1.938,2.076,6.229c1.246,2.492,5.26,5.883,5.398,11.489c-0.761-1.522-1.592-2.146-2.837-2.838c0.553,2.769,1.383,6.575,0.138,8.928c1.522,1.8,4.446,4.612,5.19,8.236c0.95,4.63-3.306,10.171-4.188,11.375C58.583,121.772,35.571,121.786,29.688,119.917z"/><linearGradient id="package_8" gradientUnits="userSpaceOnUse" x1="18.166" y1="56.1826" x2="78.4444" y2="90.9844"><stop offset="0" style="stop-color:#FAED5D"/><stop offset="0.2191" style="stop-color:#FFFFFF"/><stop offset="0.4551" style="stop-color:#FAED5D"/><stop offset="0.5506" style="stop-color:#FFFFFF"/><stop offset="1" style="stop-color:#FAED5D"/></linearGradient><path fill="url(#package_8)" d="M64.706,108.046c-1.176-5.467-5.744-5.606-5.882-11.834c-0.041-1.803-0.072-5.012-1.011-6.834c0.994-0.276,2.043-0.221,3.533,0.773c-0.293-2.759-7.063-5.417-6.904-20.446c-0.278-4.568,1.822-7.127,3.828-8.789c1.384,1.453,1.938,4.014,1.938,6.367c0.507-2.091,3.5-12.734,1.266-20.693c-2.234-7.959-1.958-14.049-0.711-17.233c-2.837,2.076-6.04,9.368-4.9,16.622c0.708,4.501-0.208,11.295-1.865,13.264c0.726-4.456,1.555-6.736-0.519-13.057c-2.072-6.321,0.726-17.513-4.62-27.487c3.553,20.809-5.675,29.667-10.843,33.173c3.138,2.399,0.229,10.479,0.541,11.723c1.72-1.573,3.451-1.642,4.35-1.227c-1.938,1.8-2.769,8.236-3.114,14.603c1.315-2.699,2.284-3.667,3.737-4.152c-1.73,5.19-1.73,9.205,1.107,18.686c-2.629-3.322-5.052-8.443-5.052-11.35c0,0.831-1.73,3.391-3.46,4.706c1.038-4.429,0.554-6.367,0.138-8.028c-0.346,0.969-1.038,2.214-2.768,3.46c0.277-1.661,0-5.536-1.246-7.613c0,0,0.462-1.061,1.431-1.522c-1.246-1.2-2.261-4.298-2.607-5.468c3.045,1.177,6.229,5.537,7.405,7.82c-1.454-9.55-4.222-10.588-2.353-17.994c-1.107,0.415-2.907,4.775-2.699,7.543c-1.246-2.146-2.976-7.198-2.076-9.412c-1.246,1.107-2.491,3.945-2.491,3.945l-0.969-5.122c0,0-1.938,3.322-1.384,7.475c-3.114-2.284-3.584-7.928-3.399-11.065c-3.506,3.322-3.75,5.925-3.525,8.85c-2.55,1.875-2.003,6.298,0.973,13.288c-0.277-2.284-0.069-4.429,0.484-5.537c0.692,3.945,4.152,4.706,5.26,10.243c1.107-1.246,1.038-6.575,0.761-9.62c0.523,0.598,2.422,6.206,1.13,12.942c1.154-0.6,1.661-0.83,2.215-1.845c0.969,2.307,0.092,12.365-2.722,8.351c-1.107,0.831-1.384,2.63-0.969,6.09c-1.522,1.107-3.875,1.8-3.599,6.229c1.107-0.553,4.637,0.624,6.437,2.907c1.384-0.415,1.799-1.522,2.007-2.699c0.969,1.176,6.021,7.474-6.229,13.634c0.069,1.038,3.668,0.277,5.052-0.416c-0.692,2.422-1.661,5.398,1.661,8.097c-0.346-1.661-0.346-4.221,0.485-3.806c2.63,0.139,4.014-1.869,4.429-3.114c-1.523,0.9-4.707,1.661-4.429-1.246c0.276-2.907,1.938-2.146,1.938,0.761c1.177-0.9,1.938-2.63,1.938-4.152c0.484,3.46,3.599,8.582,5.675,9.689c-1.107-2.215-2.146-4.914-1.592-7.059c2.353,2.076,3.46,3.668,4.776,7.474c-1.108-10.45,3.114-8.997,4.083-6.92c1.384-1.246,3.807,1.107,1.315,4.429c1.522,0.416,3.737-2.491,4.706-4.291c0.83,4.637,3.737,7.405,6.644,7.682c-2.422-2.146-3.184-4.152-2.215-5.537c0.969-1.384,3.327-3.125,2.981,4.764C63.741,116.478,65.882,113.513,64.706,108.046z M45.674,47.074c-0.208,6.713,5.122,8.443,0.554,16.194C46.712,57.386,42.421,54.964,45.674,47.074z M58.13,107.838c0.415-5.398-3.46-3.599-4.29-5.537c-0.692,1.246-0.969,3.875-0.969,6.921c-2.214-1.661-1.246-7.751-1.384-10.104c-1.799,1.107-3.045,5.121-3.46,5.813c-0.277-4.429-2.907-3.737-3.876-7.335c0,0,2.492-0.139,3.599-4.291c-0.415,4.844,1.107,5.813,7.197-2.492c-4.152,7.613-0.554,9.412,0.969,7.89C54.67,100.779,61.314,102.717,58.13,107.838z"/><linearGradient id="package_9" gradientUnits="userSpaceOnUse" x1="27.3843" y1="90.3457" x2="44.4232" y2="100.1831"><stop offset="0" style="stop-color:#FFE24E"/><stop offset="0.4944" style="stop-color:#FFFFFF"/><stop offset="1" style="stop-color:#FAED5D"/></linearGradient><path fill="url(#package_9)" d="M32.386,82.508c-0.092,5.075-1.292,8.028-4.152,6.367c-0.139,2.353,6.275,3.045,6.644,10.935c2.583-5.121,2.214,4.014,1.246,5.813c4.844-3.922,4.106-0.323,3.46,2.491c4.614-4.937-0.323-9.919,2.861-13.795c-0.743,0.286-2.584,0.554-3.599,2.769c-0.7-0.459-1.558-4.474-0.554-8.49C35.893,90.444,32.386,88.991,32.386,82.508z"/><linearGradient id="package_10" gradientUnits="userSpaceOnUse" x1="39.1758" y1="60.3247" x2="63.8085" y2="74.5464"><stop offset="0" style="stop-color:#FFE24E"/><stop offset="0.4944" style="stop-color:#FFFFFF"/><stop offset="1" style="stop-color:#FAED5D"/></linearGradient><path fill="url(#package_10)" d="M50.196,41.445c-1.846,3.691,2.952,16.425,2.307,20.208c2.583-0.276,7.474-11.627,6.828-17.255c1.292,6.828,0,11.904-5.075,19.286c-2.721,3.957-0.739,18.548,2.399,23.253c-2.491-0.092-4.336,0.462-5.075,3.138c-1.015-4.891-4.983-2.122-5.259,1.938c-1.016-2.122,1.015-12.365,3.045-16.333c-1.884,1.099-3.784,3.229-4.891,5.26c-0.185-4.337,3.875-11.904,6.09-14.672c-2.86,2.584-5.353,4.707-8.305,3.691C55.64,62.3,46.412,44.86,50.196,41.445z"/><linearGradient id="package_11" gradientUnits="userSpaceOnUse" x1="18.8267" y1="59.3569" x2="33.6117" y2="67.8931"><stop offset="0" style="stop-color:#FAED5D"/><stop offset="0.2079" style="stop-color:#FFFFFF"/><stop offset="0.8483" style="stop-color:#FAED5D"/></linearGradient><path fill="url(#package_11)" d="M21.598,54.559c0,3.15-0.354,6.564-1.575,9.6c1.774-1.375,5.25,2.25,5.775,6c0.375-2.025,0.45-4.575,0.075-7.125c1.35,1.5,4.275,4.5,4.05,11.25c0-8.7,0.075-10.575-0.525-12.45c2.625,3.15,3.957,3.581,4.875,3.976c-1.403-1.087-4.102-7.073-4.102-8.423c-1.661,1.176-2.058,4.422-2.284,5.952c-0.75-1.2-3.207-3.529-3.806-4.429C23.389,61.469,21.898,57.333,21.598,54.559z"/></g></g><linearGradient id="package_12" gradientUnits="userSpaceOnUse" x1="27.0381" y1="109.4727" x2="61.0986" y2="109.4727"><stop offset="0" style="stop-color:#9D967F"/><stop offset="0.3652" style="stop-color:#D2D0BB"/><stop offset="0.5449" style="stop-color:#A1A597"/><stop offset="0.736" style="stop-color:#A1A597"/><stop offset="0.9045" style="stop-color:#ECF5ED"/><stop offset="1" style="stop-color:#D3E9F8"/></linearGradient><path fill="url(#package_12)" d="M27.038,92.534c4.006,1.161,28.893,1.191,34.061-0.028c-1.742,4.122-7.162,26.029-8.381,33.17c-4.571,0.938-14.201,1.143-17.862-0.135C33.172,114.685,29.046,98.557,27.038,92.534z"/><path opacity="0.3" fill="#010101" d="M48.554,92.916c0.105,0.105,0.241,0.286,0.315,0.446c-2.553,19.919-3.876,42.145-4.493,64.118c1.964,40.972,0.916,80.979,0.539,103.557c-0.007,0.001-0.016,0.001-0.022,0.002c0,0.011,0,0.024,0,0.035c0.3,0.021,0.61,0.024,0.923,0.017c2.204,0.059,4.781-0.592,5.116-1.613c-0.224-21.53-2.377-117.771,4.171-166.717C53.295,92.832,50.801,92.886,48.554,92.916z M44.376,157.48c-1.052-21.942-2.969-44.158-6.315-64.126c0.157-0.167,0.336-0.345,0.443-0.446c-2.455-0.039-5.201-0.109-6.923-0.198c7.982,48.361,7.374,145.114,7.14,166.617c0.326,0.997,2.866,1.842,4.971,1.752c0.412,0.019,0.819,0.009,1.202-0.039C44.526,238.452,43.227,198.409,44.376,157.48z"/><g><linearGradient id="package_13" gradientUnits="userSpaceOnUse" x1="52.3291" y1="184.7051" x2="36.3221" y2="187.5275"><stop offset="0" style="stop-color:#F29429"/><stop offset="0.264" style="stop-color:#F5A81A"/><stop offset="0.6461" style="stop-color:#FBD035"/><stop offset="0.7978" style="stop-color:#FFE714"/><stop offset="1" style="stop-color:#F5E81E"/></linearGradient><path fill="url(#package_13)" d="M44.361,185.122c-4.557,0-8.251,0.54-8.251,1.205h1.837c0-0.289,2.871-0.522,6.414-0.522c3.542,0,6.414,0.233,6.414,0.522h1.837C52.612,185.662,48.918,185.122,44.361,185.122z"/><linearGradient id="package_14" gradientUnits="userSpaceOnUse" x1="54.7959" y1="91.2998" x2="25.4335" y2="257.8222"><stop offset="0" style="stop-color:#C99413"/><stop offset="0.1685" style="stop-color:#FBD035"/><stop offset="0.4944" style="stop-color:#BA190E"/></linearGradient><path fill="url(#package_14)" d="M36.397,88.485c-0.08-0.388-0.291-0.538-0.652-0.519c-0.179,0.006-0.36,0.019-0.54,0.027c0.203,0.058,0.332,0.21,0.39,0.491c10.89,57.692,9.05,136.848,8.649,172.514c-0.172,0.024-0.349,0.038-0.529,0.047c0.458,0.024,0.911,0.011,1.333-0.047C45.447,225.333,47.287,146.177,36.397,88.485z"/><linearGradient id="package_15" gradientUnits="userSpaceOnUse" x1="43.2837" y1="204.2349" x2="22.646" y2="87.1928"><stop offset="0" style="stop-color:#DFE8F1"/><stop offset="0.4607" style="stop-color:#FFFEFF"/><stop offset="1" style="stop-color:#F0BB19"/></linearGradient><path fill="url(#package_15)" d="M23.585,88.599c-0.479-1.928,1.18-2.382,1.766-0.321c5.943,20.879,14.776,71.951,14.294,116.599C35.952,155.411,34.747,133.568,23.585,88.599z"/><linearGradient id="package_16" gradientUnits="userSpaceOnUse" x1="479.5908" y1="201.769" x2="499.2536" y2="90.2559" gradientTransform="matrix(-1 0 0 1 545.8564 0)"><stop offset="0" style="stop-color:#DFE8F1"/><stop offset="0.4607" style="stop-color:#FFFEFF"/><stop offset="1" style="stop-color:#F0BB19"/></linearGradient><path fill="url(#package_16)" d="M64.309,88.92c0.488-1.925-1.18-2.382-1.767-0.321c-5.942,20.878-14.385,71.63-13.903,116.277C52.333,155.411,52.906,133.889,64.309,88.92z"/><linearGradient id="package_17" gradientUnits="userSpaceOnUse" x1="51.2988" y1="174.5981" x2="44.1411" y2="174.5981"><stop offset="0" style="stop-color:#C99413"/><stop offset="0.2584" style="stop-color:#FBD035"/><stop offset="0.6966" style="stop-color:#AA120F"/></linearGradient><path fill="url(#package_17)" d="M45.448,261.048c-0.401-35.69-2.923-115.061,5.481-172.525c0.017-0.115,0.127-0.323,0.369-0.376c-0.172-0.007-0.349-0.018-0.515-0.023c-0.341-0.011-0.477,0.264-0.497,0.399c-8.405,57.464-5.882,136.835-5.481,172.525c0.339,0.025,0.692,0.031,1.048,0.021C45.717,261.065,45.582,261.058,45.448,261.048z"/><linearGradient id="package_18" gradientUnits="userSpaceOnUse" x1="52.4058" y1="259.5825" x2="22.4732" y2="89.8263"><stop offset="0" style="stop-color:#DFE8F1"/><stop offset="0.4607" style="stop-color:#EDF7FA"/><stop offset="1" style="stop-color:#F0BB19"/></linearGradient><path fill="url(#package_18)" d="M30.713,88.374c1.564-0.216,2.971-0.359,4.365-0.407c0.362-0.02,0.572,0.131,0.652,0.519c10.89,57.692,9.05,136.848,8.649,172.514c-2.184,0.301-5.176-0.593-5.537-1.677c0.12-22.047,0.2-123.204-8.693-170.148C30.08,88.729,30.26,88.458,30.713,88.374z"/><linearGradient id="package_19" gradientUnits="userSpaceOnUse" x1="382.4941" y1="257.8359" x2="411.9453" y2="90.81" gradientTransform="matrix(-1 0 0 1 447.9268 0)"><stop offset="0" style="stop-color:#DFE8F1"/><stop offset="0.4607" style="stop-color:#EDF7FA"/><stop offset="1" style="stop-color:#F0BB19"/></linearGradient><path fill="url(#package_19)" d="M55.865,88.543c-1.423-0.235-3.119-0.379-4.575-0.42c-0.341-0.011-0.477,0.264-0.497,0.399c-8.405,57.464-5.883,136.835-5.482,172.525c2.282,0.172,5.18-0.482,5.541-1.566c-0.12-22.052-1.874-122.487,5.509-170.163C56.421,88.797,56.143,88.586,55.865,88.543z"/></g><linearGradient id="package_20" gradientUnits="userSpaceOnUse" x1="33.0918" y1="215.3906" x2="56.9912" y2="211.1765"><stop offset="0" style="stop-color:#F29429"/><stop offset="0.264" style="stop-color:#F5A81A"/><stop offset="0.6461" style="stop-color:#FBD035"/><stop offset="0.7978" style="stop-color:#FFE714"/><stop offset="1" style="stop-color:#F5E81E"/></linearGradient><path fill="url(#package_20)" d="M44.367,187.538c-4.35,0-7.917-0.57-8.229-1.294c-0.012,0.032-0.027,0.064-0.026,0.096l1.379,53.991c0.015,0.578,3.216,1.043,7.151,1.043c3.934,0,7.131-0.466,7.14-1.043l0.828-53.991c0-0.032-0.015-0.064-0.027-0.096C52.278,186.968,48.718,187.538,44.367,187.538z"/><linearGradient id="package_21" gradientUnits="userSpaceOnUse" x1="52.3955" y1="185.0903" x2="36.3871" y2="187.9131"><stop offset="0" style="stop-color:#F29429"/><stop offset="0.264" style="stop-color:#F5A81A"/><stop offset="0.6461" style="stop-color:#FBD035"/><stop offset="0.7978" style="stop-color:#FFE714"/><stop offset="1" style="stop-color:#F5E81E"/></linearGradient><path fill="url(#package_21)" d="M50.774,186.327c0,0.289-2.872,0.523-6.414,0.523c-3.542,0-6.414-0.234-6.414-0.523c0-0.027-0.022-0.024-0.008-0.077l-1.801-0.003c-0.012,0.027-0.028,0.053-0.028,0.081c0,0.666,3.694,1.205,8.251,1.205s8.251-0.539,8.251-1.205c0-0.027-0.016-0.054-0.028-0.081h-1.741C50.808,186.3,50.774,186.299,50.774,186.327z"/><linearGradient id="package_22" gradientUnits="userSpaceOnUse" x1="63.7896" y1="104.9775" x2="27.0074" y2="111.4632"><stop offset="0" style="stop-color:#B33F38"/><stop offset="0.1742" style="stop-color:#BA190E"/><stop offset="0.264" style="stop-color:#E6F4F8"/><stop offset="0.4213" style="stop-color:#AA120F"/><stop offset="1" style="stop-color:#DC322C"/></linearGradient><path fill="url(#package_22)" d="M61.726,99.593h1.113c0,0.001,0.001,0.002,0.001,0.004v1.055c0,0.663-8.448,1.201-18.869,1.201c-10.421,0-18.869-0.538-18.869-1.201v-1.055c0-0.001,0.001-0.002,0.001-0.004h1.114c0,0.001-0.002,0.003-0.002,0.004c0,0.423,7.95,0.766,17.756,0.766s17.757-0.343,17.757-0.766C61.728,99.596,61.726,99.595,61.726,99.593z M60.673,104.135c0,0.397-7.478,0.72-16.7,0.72c-9.223,0-16.7-0.323-16.7-0.72c0-0.001,0.002-0.002,0.002-0.004h-1.047c0,0.001-0.001,0.002-0.001,0.003v0.993c0,0.624,7.946,1.13,17.747,1.13c9.801,0,17.747-0.506,17.747-1.13v-0.993c0-0.001-0.001-0.002-0.001-0.003H60.67C60.671,104.133,60.673,104.134,60.673,104.135z M59.761,108.258c0,0.377-7.084,0.683-15.821,0.683s-15.821-0.306-15.821-0.683c0-0.001,0.002-0.002,0.002-0.003h-0.992c0,0.001-0.001,0.002-0.001,0.003v0.94c0,0.591,7.527,1.071,16.812,1.071c9.286,0,16.813-0.48,16.813-1.071v-0.94c0-0.001-0.001-0.002-0.001-0.003h-0.992C59.76,108.256,59.761,108.257,59.761,108.258z M58.858,112.657c0,0.355-6.664,0.642-14.883,0.642c-8.219,0-14.882-0.287-14.882-0.642c0-0.001,0.002-0.002,0.002-0.003h-0.934c0,0.001-0.001,0.002-0.001,0.003v0.884c0,0.556,7.081,1.007,15.815,1.007c8.735,0,15.815-0.451,15.815-1.007v-0.884c0-0.001-0.001-0.002-0.001-0.003h-0.933C58.856,112.655,58.858,112.656,58.858,112.657z M57.985,117.054c0,0.333-6.272,0.604-14.008,0.604c-7.736,0-14.007-0.271-14.007-0.604c0-0.001,0.002-0.002,0.002-0.003h-0.879c0,0.001-0.001,0.002-0.001,0.003v0.832c0,0.523,6.665,0.947,14.885,0.947c8.221,0,14.885-0.424,14.885-0.947v-0.832c0-0.001-0.001-0.002-0.001-0.003h-0.877C57.983,117.052,57.985,117.053,57.985,117.054z"/><linearGradient id="package_23" gradientUnits="userSpaceOnUse" x1="27.0103" y1="111.46" x2="63.7871" y2="104.9752"><stop offset="0" style="stop-color:#B33F38"/><stop offset="0.1742" style="stop-color:#BA190E"/><stop offset="0.264" style="stop-color:#E6F4F8"/><stop offset="0.4213" style="stop-color:#AA120F"/><stop offset="1" style="stop-color:#DC322C"/></linearGradient><path fill="url(#package_23)" d="M62.839,99.593v1.057c0,0.665-8.461,1.203-18.899,1.203c-10.437,0-18.834-0.539-18.834-1.203v-1.057c0,0.665,8.398,1.204,18.834,1.204C54.378,100.797,62.839,100.258,62.839,99.593z M44,105.263c-9.816,0-17.774-0.507-17.774-1.132v0.994c0,0.625,7.958,1.132,17.774,1.132c9.816,0,17.718-0.507,17.718-1.132v-0.994C61.718,104.756,53.816,105.263,44,105.263z M43.965,109.327c-9.299,0-16.838-0.48-16.838-1.072v0.941c0,0.592,7.539,1.072,16.838,1.072c9.3,0,16.787-0.478,16.787-1.069v-0.941C60.752,108.85,53.266,109.327,43.965,109.327z M44,113.662c-8.747,0-15.839-0.452-15.839-1.008v0.885c0,0.557,7.092,1.009,15.839,1.009c8.749,0,15.762-0.452,15.762-1.009v-0.885C59.762,113.21,52.749,113.662,44,113.662z M44,118c-8.233,0-14.908-0.425-14.908-0.949v0.833c0,0.524,6.674,0.949,14.908,0.949s14.858-0.43,14.858-0.954v-0.833C58.858,117.57,52.233,118,44,118z"/></g></svg>
	</defs>
</svg>