<?xml version="1.0" encoding="UTF-8"?>
<svg>
	<defs>
		<svg version="1.1" baseProfile="tiny" id="svg-icon-alert" xmlns="http://www.w3.org/2000/svg" xmlns:xlink="http://www.w3.org/1999/xlink" x="0px" y="0px" width="32px" height="32px" viewBox="0 0 32 32" overflow="inherit" xml:space="preserve"><path d="M30.099,26.63L18.185,2.802c-1.202-2.403-3.167-2.403-4.37,0L1.901,26.63C0.699,29.035,1.914,31,4.602,31h22.797C30.086,31,31.301,29.035,30.099,26.63z M17.503,25.832c-0.428,0.404-0.926,0.605-1.497,0.605c-0.579,0-1.082-0.201-1.509-0.605c-0.428-0.405-0.641-0.891-0.641-1.453c0-0.563,0.213-1.053,0.641-1.463c0.428-0.414,0.931-0.619,1.509-0.619c0.571,0,1.069,0.205,1.497,0.619c0.428,0.41,0.641,0.899,0.641,1.463C18.144,24.941,17.931,25.427,17.503,25.832z M18.004,13.286c-0.108,0.501-0.243,1.089-0.407,1.765c-0.156,0.638-0.334,1.435-0.534,2.389c-0.201,0.952-0.411,2.131-0.633,3.533h-0.858c-0.223-1.419-0.433-2.599-0.633-3.54c-0.201-0.941-0.379-1.732-0.535-2.371c-0.142-0.586-0.272-1.159-0.391-1.72c-0.118-0.561-0.178-0.981-0.178-1.263c0-0.572,0.213-1.059,0.636-1.464s0.93-0.607,1.523-0.607c0.587,0,1.095,0.202,1.527,0.607c0.429,0.405,0.646,0.892,0.646,1.464C18.166,12.383,18.111,12.785,18.004,13.286z"/></svg>
		<svg version="1.1" baseProfile="tiny" id="svg-icon-settings" xmlns="http://www.w3.org/2000/svg" xmlns:xlink="http://www.w3.org/1999/xlink" x="0px" y="0px" width="32px" height="32px" viewBox="0 0 32 32" overflow="inherit" xml:space="preserve"><path d="M32,17.333v-2.667l-2.528-0.506c-0.159-1.15-0.459-2.256-0.896-3.293l1.947-1.713l-1.332-2.31l-2.5,0.847c-0.699-0.875-1.502-1.662-2.395-2.338l0.86-2.543l-2.312-1.335l-1.816,2.069c-0.997-0.382-2.047-0.645-3.141-0.778L17.335,0h-2.667L14.1,2.845c-1.043,0.17-2.044,0.46-2.99,0.856L9.156,1.476l-2.31,1.335l0.972,2.875C7.044,6.32,6.346,7.042,5.732,7.833L2.81,6.845l-1.333,2.31l2.344,2.06c-0.347,0.903-0.598,1.853-0.743,2.837L0,14.667v2.667l3.078,0.617c0.146,0.984,0.396,1.934,0.743,2.834l-2.344,2.061l1.332,2.311l2.924-0.986c0.614,0.787,1.312,1.51,2.086,2.145l-0.972,2.875l2.309,1.334l1.955-2.225c0.945,0.398,1.947,0.687,2.99,0.857L14.667,32h2.667l0.553-2.767c1.094-0.137,2.144-0.398,3.141-0.779l1.818,2.068l2.31-1.334l-0.86-2.545c0.893-0.674,1.695-1.459,2.395-2.334l2.5,0.846l1.332-2.311l-1.947-1.711c0.438-1.039,0.737-2.146,0.896-3.293L32,17.333z M16,22.669c-3.682,0-6.667-2.984-6.667-6.669c0-3.682,2.985-6.667,6.667-6.667c3.685,0,6.669,2.984,6.669,6.667C22.669,19.685,19.685,22.669,16,22.669z"/></svg>
	</defs>
</svg>